<?xml version="1.0" encoding="utf-8"?>
<!-- Generator: Adobe Illustrator 19.2.0, SVG Export Plug-In . SVG Version: 6.00 Build 0)  -->
<svg version="1.1" id="Layer_1" xmlns="http://www.w3.org/2000/svg" xmlns:xlink="http://www.w3.org/1999/xlink" x="0px" y="0px"
	 viewBox="0 0 1383.1 704" style="enable-background:new 0 0 1383.1 704;" xml:space="preserve">
<style type="text/css">
	.st0{fill:#001118;}
	.st1{fill:none;stroke:#000000;stroke-width:6;stroke-miterlimit:10;}
	.st2{fill:none;stroke:#FFFFFF;stroke-width:6;stroke-miterlimit:10;}
	.st3{fill:none;stroke:#FFFFFF;stroke-miterlimit:10;}
	.st4{fill:#FFFFFF;}
	.st5{stroke:#FFFFFF;stroke-miterlimit:10;}
</style>
<g>
	<path d="M985.1,576.1c-3.4,1.3-8.3,3.2-14.2,5.1c-5.9,1.9-12.9,4-20.3,5.7c-7.4,1.8-15.4,3.2-23.2,4.1c-7.8,0.9-15.5,1.2-22.4,0.9
		c-3.4-0.2-6.7-0.5-9.7-0.9c-3-0.5-5.7-1-8.1-1.6c-4.8-1.2-8.3-2.7-10.6-3.8c-0.6-0.3-1.1-0.5-1.5-0.8c-0.4-0.2-0.8-0.4-1.1-0.6
		c-0.6-0.3-0.9-0.5-0.9-0.5l-0.1,0c-0.5-0.3-0.9-0.5-1.4-0.8c-0.2-0.1-0.5-0.2-0.7-0.3c-0.2-0.1-0.5-0.2-0.7-0.4
		c-0.2-0.1-0.5-0.2-0.7-0.3c-0.2-0.1-0.5-0.2-0.7-0.3c-0.5-0.2-0.9-0.4-1.4-0.6c-0.2-0.1-0.4-0.2-0.6-0.2c-0.2-0.1-0.4-0.2-0.6-0.2
		c-0.2-0.1-0.4-0.1-0.6-0.2c-0.2-0.1-0.4-0.1-0.6-0.2c-0.4-0.1-0.8-0.3-1.2-0.4c-0.2-0.1-0.4-0.1-0.6-0.2c0,0-0.1,0-0.1,0
		c-0.2-0.1-0.4-0.1-0.5-0.2c-0.4-0.1-0.8-0.2-1.2-0.3l-0.3-0.1c0,0-0.1,0-0.1,0l-0.3-0.1c-0.2-0.1-0.4-0.1-0.6-0.2
		c-0.4-0.1-0.8-0.2-1.2-0.3c-0.4-0.1-0.8-0.2-1.2-0.3c-3.4-0.7-7-1.2-10.8-1.4c-3.8-0.3-7.7-0.3-11.5,0.3c-3.8,0.6-7.5,1.8-10.7,4
		c-1.3,0.9-2.5,2-3.5,3.2c-1.7-3.4-4.2-6-7.4-7.8c-3.6-2-7-2.4-11.1-2.9c-5.9-0.6-8.9-0.9-12.1,0c-2.2,0.6-8.5,2.9-10,3.5
		c-1,0.3-1.2,0.4-1.2,0.4c-0.4,0.1-0.8,0.3-1.2,0.4c-0.2,0.1-0.4,0.1-0.6,0.2l-0.3,0.1l-0.3,0.1c-0.4,0.1-0.8,0.3-1.2,0.4
		c-0.2,0.1-0.4,0.2-0.6,0.3c-0.2,0.1-0.4,0.2-0.6,0.2c-0.4,0.2-0.8,0.3-1.1,0.5c-0.2,0.1-0.4,0.2-0.6,0.3c-0.2,0.1-0.4,0.2-0.6,0.3
		c-0.2,0.1-0.4,0.2-0.6,0.3c-0.2,0.1-0.4,0.2-0.6,0.3c-0.5,0.2-0.9,0.5-1.4,0.8c-0.2,0.1-0.5,0.3-0.7,0.4c-0.2,0.1-0.5,0.3-0.7,0.4
		c-0.2,0.1-0.4,0.3-0.7,0.4c-0.2,0.1-0.5,0.3-0.7,0.4c-0.4,0.3-0.9,0.6-1.3,0.9l-0.1,0c0,0-0.3,0.2-0.8,0.6c-0.3,0.2-0.6,0.4-1,0.7
		c-0.4,0.3-0.9,0.6-1.4,0.9c-2.2,1.3-5.5,3.2-10.1,4.9c-2.3,0.9-4.9,1.7-7.8,2.4c-2.9,0.7-6.1,1.4-9.5,1.9
		c-6.8,1.1-14.5,1.5-22.4,1.4c-7.9-0.1-15.9-0.7-23.5-1.7c-7.6-1-14.7-2.3-20.8-3.6c-6.1-1.3-11.2-2.6-14.7-3.6
		c-1.8-0.5-3.1-0.9-4.1-1.2c-0.9-0.3-1.4-0.4-1.4-0.4s0.1,0.1,0.3,0.2c0.2,0.2,0.5,0.4,0.8,0.7c0.7,0.6,1.8,1.5,3.1,2.6
		c2.7,2.2,6.7,5.4,11.7,8.9c10,7.2,23.9,16.1,39.5,23.4c7.8,3.6,15.9,6.8,24,9.3c2,0.6,4,1.2,6,1.7c1,0.2,2,0.5,3,0.7
		c0.2,0.1,0.5,0.1,0.7,0.2c0.2,0.1,0.5,0.1,0.7,0.2c0.5,0.1,1,0.2,1.5,0.3c1.9,0.4,3.9,0.8,5.8,1.1c1,0.1,1.9,0.3,2.8,0.4
		c0.5,0.1,0.9,0.1,1.4,0.2c0.5,0.1,0.9,0.1,1.4,0.2c0.9,0.1,1.8,0.2,2.6,0.3c0.9,0.1,1.7,0.1,2.6,0.2c0.8,0.1,1.7,0.1,2.5,0.2
		c0.8,0,1.6,0.1,2.3,0.1c1.5,0.1,3,0.1,4.3,0.1c0.7,0,1.3,0,1.9,0c0.6,0,1.2,0,1.8-0.1c0.6,0,1.1,0,1.6-0.1c0.5,0,1,0,1.4-0.1
		c0.9-0.1,1.6-0.1,2.3-0.2c0.6-0.1,1.1-0.1,1.4-0.1c0.3,0,0.5,0,0.5,0c0.8-0.1,1.6-0.1,2.5-0.2c0.4,0,0.8-0.1,1.3-0.1
		c0.4,0,0.8-0.1,1.3-0.2c0.8-0.1,1.7-0.3,2.6-0.5c0.4-0.1,0.9-0.2,1.3-0.3c0.4-0.1,0.9-0.2,1.3-0.3l0.9-0.2l0.1-0.1
		c0.9-0.3,1.8-0.5,2.7-0.8c0.9-0.3,1.8-0.7,2.7-1c0.5-0.2,0.9-0.4,1.4-0.6c0.5-0.2,0.9-0.4,1.4-0.6c0.9-0.4,1.8-0.9,2.7-1.3
		c0.5-0.2,0.9-0.5,1.3-0.7c0.4-0.3,0.9-0.5,1.3-0.8c0.4-0.3,0.9-0.5,1.3-0.8c0.4-0.3,0.8-0.5,1.2-0.8c0.8-0.6,1.6-1.2,2.4-1.8
		c0.4-0.3,0.8-0.6,1.2-0.9c0.4-0.3,0.7-0.6,1.1-1c0.7-0.6,1.4-1.3,2.1-1.9l0.5-0.5l0.5-0.5c0.3-0.3,0.6-0.7,1-1
		c0.6-0.7,1.2-1.4,1.8-2.1c0.6-0.7,1.1-1.4,1.6-2.1c0.5-0.7,1-1.4,1.5-2.1c0.5-0.7,0.9-1.5,1.3-2.2c0.4-0.7,0.8-1.4,1.2-2.2
		c0.1-0.2,0.2-0.3,0.2-0.5c0.5,1.1,1,2.2,1.7,3.4c0.4,0.7,0.8,1.4,1.2,2.1c0.4,0.7,0.9,1.3,1.4,2c0.5,0.7,1,1.4,1.5,2
		c0.6,0.7,1.1,1.3,1.7,2c0.6,0.6,1.2,1.3,1.9,1.9c0.7,0.6,1.3,1.2,2,1.9c0.4,0.3,0.7,0.6,1.1,0.9l0.5,0.5l0.6,0.4
		c0.8,0.6,1.5,1.1,2.3,1.7c0.4,0.3,0.8,0.6,1.2,0.8c0.4,0.3,0.8,0.5,1.2,0.8c0.8,0.5,1.7,1,2.6,1.5c0.4,0.3,0.9,0.5,1.3,0.7
		c0.5,0.2,0.9,0.4,1.4,0.7c0.5,0.2,0.9,0.4,1.4,0.6c0.5,0.2,0.9,0.4,1.4,0.6c0.9,0.4,1.9,0.7,2.8,1.1c0.5,0.2,0.9,0.3,1.4,0.5
		c0.5,0.1,0.9,0.3,1.4,0.4c0.9,0.3,1.9,0.5,2.8,0.7c0.9,0.2,1.9,0.4,2.8,0.5l0.1,0.1l0.9,0.1c0.4,0.1,0.9,0.1,1.3,0.2
		c0.4,0,0.9,0.1,1.3,0.1c0.9,0.1,1.7,0.2,2.6,0.2c0.4,0,0.9,0,1.3,0c0.4,0,0.8,0,1.3,0c0.8,0,1.6,0,2.4-0.1c0,0,0.1,0,0.1,0
		c0.1,0,0.2,0,0.4,0c0.3,0,0.8,0,1.4,0c0.6,0,1.4,0,2.3-0.1c0.4,0,0.9,0,1.4-0.1c0.5,0,1-0.1,1.6-0.1c0.6,0,1.2-0.1,1.8-0.1
		c0.6,0,1.3-0.1,1.9-0.2c1.3-0.1,2.8-0.3,4.3-0.5c0.8-0.1,1.5-0.2,2.3-0.3c0.8-0.1,1.6-0.3,2.4-0.4c0.8-0.2,1.7-0.3,2.5-0.5
		c0.8-0.2,1.7-0.4,2.6-0.6c0.4-0.1,0.9-0.2,1.3-0.3c0.4-0.1,0.9-0.2,1.3-0.3c0.9-0.2,1.8-0.5,2.7-0.7c1.8-0.5,3.7-1.1,5.6-1.7
		c0.5-0.2,1-0.3,1.4-0.5c0.2-0.1,0.5-0.2,0.7-0.2c0.2-0.1,0.5-0.2,0.7-0.3c1-0.3,1.9-0.7,2.9-1c1.9-0.7,3.9-1.5,5.8-2.3
		c7.8-3.3,15.6-7.3,22.9-11.7c14.7-8.8,27.6-19.2,36.8-27.4c4.6-4.1,8.2-7.6,10.7-10.1c1.2-1.3,2.2-2.3,2.9-2.9
		c0.3-0.3,0.6-0.6,0.7-0.8c0.2-0.2,0.2-0.3,0.2-0.3s-0.5,0.2-1.4,0.6C988.1,574.8,986.8,575.4,985.1,576.1z"/>
</g>
<g>
	<g>
		<path class="st0" d="M937.4,311c-31.9,2.7-70.6,7.2-112.2,13.4c-43.5,6.5-83.4,13.9-115.5,21c0,0,0,0,0,0
			c-46.9,10.4-76.8,20.1-75.9,26c1.5,9.9,89.6,4.9,196.8-11.2c107.2-16,192.9-37,191.4-46.9C1021,307.3,987.7,306.8,937.4,311z"/>
	</g>
	<g>
		<path class="st0" d="M712.3,348.8c31.8-8.9,71.7-17.4,115.2-23.9c41.6-6.2,80.6-9.8,112.8-10.8c0,0,0.4-0.1,0.4-0.1l-32.9-220
			c-1.2-8.2-9.3-14-17.5-13.5c-21.2-6.9-59.2-8.1-101.5-1.7c-42.3,6.3-78.2,18.5-96.5,31.3c-1.7,0.3-6.5,1.6-10,6.2
			c-2.4,3.3-3.6,7.5-2.9,11.9l0.1,0.4c0,0.1,0,0.2,0,0.2c0,0.1,0,0.2,0,0.2l32.8,219.1C712.3,348.5,712.3,348.6,712.3,348.8z"/>
	</g>
</g>
<g>
	<path d="M235.8,416.3v93.3h-26.1v-64.9l-18.2,64.9h-15.1l-18.7-63.8v63.8h-9.1v-93.3h27.5l16,56.3l15.9-56.3H235.8z"/>
	<path d="M300.3,465.7h-17.1c0.6-2.7,1.1-4.7,1.6-5.9c0.6-1.9,1-3.6,1-5.1c0-2.9-1-4.4-3.1-4.4c-1.6,0-3.1,1.9-4.6,5.8
		c-1.5,3.9-2.2,7.9-2.2,12.2v41.3h-25v-68.9l4.9,0.1c5.7,0,12.4-0.6,20.1-1.8v11.3c4.1-7.6,9-11.3,14.9-11.3c8,0,12,4.4,12,13.3
		c0,2.3-0.4,5-1.2,8C301.3,461.4,300.9,463.2,300.3,465.7z"/>
	<path d="M372.6,416.3v9.4h-33.8v31.1h28.7v9.4h-28.7v43.5h-27.1v-93.3H372.6z"/>
	<path d="M430.1,465.7H413c0.6-2.7,1.1-4.7,1.6-5.9c0.6-1.9,1-3.6,1-5.1c0-2.9-1-4.4-3.1-4.4c-1.6,0-3.1,1.9-4.6,5.8
		c-1.5,3.9-2.2,7.9-2.2,12.2v41.3h-25v-68.9l4.9,0.1c5.7,0,12.4-0.6,20.1-1.8v11.3c4.1-7.6,9-11.3,14.9-11.3c8,0,12,4.4,12,13.3
		c0,2.3-0.4,5-1.2,8C431.1,461.4,430.7,463.2,430.1,465.7z"/>
	<path d="M489.8,484.4l10,2.9c-1,15.9-10.4,23.9-28.2,23.9c-23,0-34.5-11.5-34.5-34.4c0-11.1,3.1-20.2,9.2-27.3
		c6.1-7.1,13.9-10.7,23.4-10.7c19.9,0,29.9,12.9,29.9,38.6h-36.4c0,18,4.6,27.1,13.7,27.1c8.6,0,12.9-5.1,12.9-15.3
		C489.9,487.7,489.9,486.1,489.8,484.4z M463.3,469.6h14.9c0-16-2.4-24.1-7.2-24.1c-4.4,0-6.8,5.9-7.4,17.8L463.3,469.6z"/>
	<path d="M559.7,484.4l10,2.9c-1,15.9-10.4,23.9-28.2,23.9c-23,0-34.5-11.5-34.5-34.4c0-11.1,3.1-20.2,9.2-27.3
		c6.1-7.1,13.9-10.7,23.4-10.7c19.9,0,29.9,12.9,29.9,38.6h-36.4c0,18,4.6,27.1,13.7,27.1c8.6,0,12.9-5.1,12.9-15.3
		C559.9,487.7,559.8,486.1,559.7,484.4z M533.2,469.6h14.9c0-16-2.4-24.1-7.2-24.1c-4.4,0-6.8,5.9-7.4,17.8L533.2,469.6z"/>
	<path d="M581.4,509.6v-93.3h41.5c21.4,0,32.1,7.6,32.1,22.9c0,10.8-6.4,17.8-19.3,20.8c15.5,3.1,23.3,11.3,23.3,24.7
		c0,16.5-10.5,24.8-31.4,24.8H581.4z M608.5,456.9h8.3c7.7,0,11.6-5.7,11.6-17.1c0-10.5-4.1-15.8-12.2-15.8h-7.7V456.9z
		 M608.5,501.9h7.7c10.1,0,15.2-5.8,15.2-17.4c0-13.3-5.2-19.9-15.7-19.9h-7.2V501.9z"/>
	<path d="M1065.3,440.7l-14.2,17.8l20.5,51.1h-26.3l-12-30.4l-4.6,5.6v24.7h-25v-93.3c7.3,0,15.7-0.5,25-1.5v58.4l26.6-32.5H1065.3z
		"/>
	<path d="M1131.5,458.4l-12.1,2.1c0-10.3-4.8-15.4-14.4-15.4c-5.9,0-8.8,2.4-8.8,7.2c0,3.6,5.1,7.4,15.2,11.5
		c15.5,6.3,23.2,14.4,23.2,24.1c0,15.5-9.9,23.3-29.6,23.3c-20.9,0-31.3-7.8-31.3-23.3l12.9-2.6c-0.2,1.5-0.3,2.9-0.3,4.2
		c0,4,1.7,7.5,5,10.5c3.3,3,7.3,4.4,11.9,4.4c6,0,9-2.6,9-7.7c0-3.4-4.9-7.2-14.6-11.3c-14.6-6.3-21.9-14.4-21.9-24.2
		c0-6.5,2.8-11.9,8.4-16s12.8-6.3,21.6-6.3C1121.3,439,1129.9,445.4,1131.5,458.4z"/>
</g>
<g>
	<path d="M889.7,522.3c-33.8,0-61.3-27.5-61.3-61.3s27.5-61.3,61.3-61.3s61.3,27.5,61.3,61.3S923.5,522.3,889.7,522.3z M889.7,409.6
		c-28.3,0-51.3,23-51.3,51.3s23,51.3,51.3,51.3s51.3-23,51.3-51.3S918,409.6,889.7,409.6z"/>
</g>
<circle cx="745" cy="457.8" r="27.8"/>
<path class="st1" d="M981.6,326.8c-0.5,46.2-27.7,83.2-60.7,82.9"/>
<path class="st2" d="M624.6,334.5c4,19.5,145.3,7.2,315.9-27.6"/>
<path class="st3" d="M809.9,588"/>
<g>
	<path class="st4" d="M691.2,447.5c0,0,2-3,0-3C690.2,444.5,690.2,447.5,691.2,447.5C691.2,447.5,690.2,447.5,691.2,447.5z"/>
</g>
<path d="M664.2,534"/>
<path class="st3" d="M828.2,591c3.3-2.3,9.1-5.8,17-7c5.6-0.9,10-0.2,11.5,0c5,0.8,8.3,2.4,14.5,5.5c7.2,3.6,8.1,4.8,13.5,7.5
	c0,0,7.2,3.6,16,6c12,3.2,33.6-1.3,57-13.5"/>
<path class="st5" d="M816.2,593.5c-1.6-2.6-6.3-9.1-14-10.5c-4.3-0.8-8.1,0.3-15,3.5c-12.4,5.8-17.6,10.5-24.5,14.5
	c-13.6,7.9-26.8,9.1-31.5,9.5c-12.2,1.1-21.5-1.8-39-7c-9-2.7-16.3-5.4-21.5-7.5"/>
<line class="st1" x1="141" y1="550" x2="653.7" y2="550"/>
<line class="st1" x1="1006.1" y1="550" x2="1134.3" y2="550"/>
</svg>
