<?xml version="1.0" encoding="utf-8"?>
<!-- Generator: Adobe Illustrator 19.2.0, SVG Export Plug-In . SVG Version: 6.00 Build 0)  -->
<svg version="1.1" id="Layer_1" xmlns="http://www.w3.org/2000/svg" xmlns:xlink="http://www.w3.org/1999/xlink" x="0px" y="0px"
	 viewBox="0 0 1501.3 636" style="enable-background:new 0 0 1501.3 636;" xml:space="preserve">
<style type="text/css">
	.st0{fill:#21201F;}
	.st1{fill:none;}
</style>
<g>
	<path class="st0" d="M1094.2,536.1c-3.4,1.3-8.3,3.2-14.2,5.1c-5.9,1.9-12.9,4-20.3,5.7c-7.4,1.8-15.4,3.2-23.2,4.1
		c-7.8,0.9-15.5,1.2-22.4,0.9c-3.4-0.2-6.7-0.5-9.7-0.9c-3-0.5-5.7-1-8.1-1.6c-4.8-1.2-8.3-2.7-10.6-3.8c-0.6-0.3-1.1-0.5-1.5-0.8
		c-0.4-0.2-0.8-0.4-1.1-0.6c-0.6-0.3-0.9-0.5-0.9-0.5l-0.1,0c-0.5-0.3-0.9-0.5-1.4-0.8c-0.2-0.1-0.5-0.2-0.7-0.3
		c-0.2-0.1-0.5-0.2-0.7-0.4c-0.2-0.1-0.5-0.2-0.7-0.3c-0.2-0.1-0.5-0.2-0.7-0.3c-0.5-0.2-0.9-0.4-1.4-0.6c-0.2-0.1-0.4-0.2-0.6-0.2
		c-0.2-0.1-0.4-0.2-0.6-0.2c-0.2-0.1-0.4-0.1-0.6-0.2c-0.2-0.1-0.4-0.1-0.6-0.2c-0.4-0.1-0.8-0.3-1.2-0.4c-0.2-0.1-0.4-0.1-0.6-0.2
		c0,0-0.1,0-0.1,0c-0.2-0.1-0.4-0.1-0.5-0.2c-0.4-0.1-0.8-0.2-1.2-0.3l-0.3-0.1c0,0-0.1,0-0.1,0l-0.3-0.1c-0.2-0.1-0.4-0.1-0.6-0.2
		c-0.4-0.1-0.8-0.2-1.2-0.3c-0.4-0.1-0.8-0.2-1.2-0.3c-3.4-0.7-7-1.2-10.8-1.4c-3.8-0.3-7.7-0.3-11.5,0.3c-3.8,0.6-7.5,1.8-10.7,4
		c-1.3,0.9-2.5,2-3.5,3.2c-1.7-3.4-4.2-6-7.4-7.8c-3.4-1.9-7.3-2.7-11.1-2.9c-3.9-0.2-7.8,0.2-11.5,0.9c-3.8,0.6-7.3,1.5-10.6,2.5
		c-0.4,0.1-0.8,0.3-1.2,0.4c-0.4,0.1-0.8,0.3-1.2,0.4c-0.2,0.1-0.4,0.1-0.6,0.2l-0.3,0.1l-0.3,0.1c-0.4,0.1-0.8,0.3-1.2,0.4
		c-0.2,0.1-0.4,0.2-0.6,0.3c-0.2,0.1-0.4,0.2-0.6,0.2c-0.4,0.2-0.8,0.3-1.1,0.5c-0.2,0.1-0.4,0.2-0.6,0.3c-0.2,0.1-0.4,0.2-0.6,0.3
		c-0.2,0.1-0.4,0.2-0.6,0.3c-0.2,0.1-0.4,0.2-0.6,0.3c-0.5,0.2-0.9,0.5-1.4,0.8c-0.2,0.1-0.5,0.3-0.7,0.4c-0.2,0.1-0.5,0.3-0.7,0.4
		c-0.2,0.1-0.4,0.3-0.7,0.4c-0.2,0.1-0.5,0.3-0.7,0.4c-0.4,0.3-0.9,0.6-1.3,0.9l-0.1,0c0,0-0.3,0.2-0.8,0.6c-0.3,0.2-0.6,0.4-1,0.7
		c-0.4,0.3-0.9,0.6-1.4,0.9c-2.2,1.3-5.5,3.2-10.1,4.9c-2.3,0.9-4.9,1.7-7.8,2.4c-2.9,0.7-6.1,1.4-9.5,1.9
		c-6.8,1.1-14.5,1.5-22.4,1.4c-7.9-0.1-15.9-0.7-23.5-1.7c-7.6-1-14.7-2.3-20.8-3.6c-6.1-1.3-11.2-2.6-14.7-3.6
		c-1.8-0.5-3.1-0.9-4.1-1.2c-0.9-0.3-1.4-0.4-1.4-0.4s0.1,0.1,0.3,0.2c0.2,0.2,0.5,0.4,0.8,0.7c0.7,0.6,1.8,1.5,3.1,2.6
		c2.7,2.2,6.7,5.4,11.7,8.9c10,7.2,23.9,16.1,39.5,23.4c7.8,3.6,15.9,6.8,24,9.3c2,0.6,4,1.2,6,1.7c1,0.2,2,0.5,3,0.7
		c0.2,0.1,0.5,0.1,0.7,0.2c0.2,0.1,0.5,0.1,0.7,0.2c0.5,0.1,1,0.2,1.5,0.3c1.9,0.4,3.9,0.8,5.8,1.1c1,0.1,1.9,0.3,2.8,0.4
		c0.5,0.1,0.9,0.1,1.4,0.2c0.5,0.1,0.9,0.1,1.4,0.2c0.9,0.1,1.8,0.2,2.6,0.3c0.9,0.1,1.7,0.1,2.6,0.2c0.8,0.1,1.7,0.1,2.5,0.2
		c0.8,0,1.6,0.1,2.3,0.1c1.5,0.1,3,0.1,4.3,0.1c0.7,0,1.3,0,1.9,0c0.6,0,1.2,0,1.8-0.1c0.6,0,1.1,0,1.6-0.1c0.5,0,1,0,1.4-0.1
		c0.9-0.1,1.6-0.1,2.3-0.2c0.6-0.1,1.1-0.1,1.4-0.1c0.3,0,0.5,0,0.5,0c0.8-0.1,1.6-0.1,2.5-0.2c0.4,0,0.8-0.1,1.3-0.1
		c0.4,0,0.8-0.1,1.3-0.2c0.8-0.1,1.7-0.3,2.6-0.5c0.4-0.1,0.9-0.2,1.3-0.3c0.4-0.1,0.9-0.2,1.3-0.3l0.9-0.2l0.1-0.1
		c0.9-0.3,1.8-0.5,2.7-0.8c0.9-0.3,1.8-0.7,2.7-1c0.5-0.2,0.9-0.4,1.4-0.6c0.5-0.2,0.9-0.4,1.4-0.6c0.9-0.4,1.8-0.9,2.7-1.3
		c0.5-0.2,0.9-0.5,1.3-0.7c0.4-0.3,0.9-0.5,1.3-0.8c0.4-0.3,0.9-0.5,1.3-0.8c0.4-0.3,0.8-0.5,1.2-0.8c0.8-0.6,1.6-1.2,2.4-1.8
		c0.4-0.3,0.8-0.6,1.2-0.9c0.4-0.3,0.7-0.6,1.1-1c0.7-0.6,1.4-1.3,2.1-1.9l0.5-0.5l0.5-0.5c0.3-0.3,0.6-0.7,1-1
		c0.6-0.7,1.2-1.4,1.8-2.1c0.6-0.7,1.1-1.4,1.6-2.1c0.5-0.7,1-1.4,1.5-2.1c0.5-0.7,0.9-1.5,1.3-2.2c0.4-0.7,0.8-1.4,1.2-2.2
		c0.1-0.2,0.2-0.3,0.2-0.5c0.5,1.1,1,2.2,1.7,3.4c0.4,0.7,0.8,1.4,1.2,2.1c0.4,0.7,0.9,1.3,1.4,2c0.5,0.7,1,1.4,1.5,2
		c0.6,0.7,1.1,1.3,1.7,2c0.6,0.6,1.2,1.3,1.9,1.9c0.7,0.6,1.3,1.2,2,1.9c0.4,0.3,0.7,0.6,1.1,0.9l0.5,0.5l0.6,0.4
		c0.8,0.6,1.5,1.1,2.3,1.7c0.4,0.3,0.8,0.6,1.2,0.8c0.4,0.3,0.8,0.5,1.2,0.8c0.8,0.5,1.7,1,2.6,1.5c0.4,0.3,0.9,0.5,1.3,0.7
		c0.5,0.2,0.9,0.4,1.4,0.7c0.5,0.2,0.9,0.4,1.4,0.6c0.5,0.2,0.9,0.4,1.4,0.6c0.9,0.4,1.9,0.7,2.8,1.1c0.5,0.2,0.9,0.3,1.4,0.5
		c0.5,0.1,0.9,0.3,1.4,0.4c0.9,0.3,1.9,0.5,2.8,0.7c0.9,0.2,1.9,0.4,2.8,0.5l0.1,0.1l0.9,0.1c0.4,0.1,0.9,0.1,1.3,0.2
		c0.4,0,0.9,0.1,1.3,0.1c0.9,0.1,1.7,0.2,2.6,0.2c0.4,0,0.9,0,1.3,0c0.4,0,0.8,0,1.3,0c0.8,0,1.6,0,2.4-0.1c0,0,0.1,0,0.1,0
		c0.1,0,0.2,0,0.4,0c0.3,0,0.8,0,1.4,0c0.6,0,1.4,0,2.3-0.1c0.4,0,0.9,0,1.4-0.1c0.5,0,1-0.1,1.6-0.1c0.6,0,1.2-0.1,1.8-0.1
		c0.6,0,1.3-0.1,1.9-0.2c1.3-0.1,2.8-0.3,4.3-0.5c0.8-0.1,1.5-0.2,2.3-0.3c0.8-0.1,1.6-0.3,2.4-0.4c0.8-0.2,1.7-0.3,2.5-0.5
		c0.8-0.2,1.7-0.4,2.6-0.6c0.4-0.1,0.9-0.2,1.3-0.3c0.4-0.1,0.9-0.2,1.3-0.3c0.9-0.2,1.8-0.5,2.7-0.7c1.8-0.5,3.7-1.1,5.6-1.7
		c0.5-0.2,1-0.3,1.4-0.5c0.2-0.1,0.5-0.2,0.7-0.2c0.2-0.1,0.5-0.2,0.7-0.3c1-0.3,1.9-0.7,2.9-1c1.9-0.7,3.9-1.5,5.8-2.3
		c7.8-3.3,15.6-7.3,22.9-11.7c14.7-8.8,27.6-19.2,36.8-27.4c4.6-4.1,8.2-7.6,10.7-10.1c1.2-1.3,2.2-2.3,2.9-2.9
		c0.3-0.3,0.6-0.6,0.7-0.8c0.2-0.2,0.2-0.3,0.2-0.3s-0.5,0.2-1.4,0.6C1097.2,534.8,1095.9,535.4,1094.2,536.1z"/>
</g>
<path class="st0" d="M1055.4,271.8V55c0-8.3-7.1-15.2-15.3-15.9c-19.9-10-57.3-16.7-100.2-16.7c-42.8,0-80.1,6.7-100,16.7
	c-1.8,0.1-6.7,0.6-10.8,4.7c-2.9,2.9-4.7,6.9-4.7,11.3v0.4c0,0.1,0,0.2,0,0.2s0,0.2,0,0.2v216.4c0,0,0,0-0.1,0c0,0,0,0,0-0.1
	c-47.9,6-79,15.6-79,26.4c0,18.3,87.9,33.1,196.3,33.1s196.3-14.7,196.3-33C1137.9,287.6,1105.3,277.8,1055.4,271.8z"/>
<g>
</g>
<path class="st0" d="M877.9,424.5c0,20.1-5.1,35.9-15.3,47.4c-10.2,11.5-24.3,17.3-42.4,17.3c-18.5,0-32.8-5.7-42.8-17
	c-10.1-11.3-15.1-27.3-15.1-47.9c0-20.5,5-36.3,15.1-47.6c10.1-11.3,24.4-16.9,43-16.9c18,0,32.1,5.7,42.3,17.2
	C872.9,388.6,877.9,404.4,877.9,424.5z M777.8,424.5c0,17,3.6,29.9,10.9,38.7c7.2,8.8,17.8,13.2,31.6,13.2
	c13.9,0,24.4-4.4,31.5-13.1c7.1-8.8,10.7-21.7,10.7-38.8c0-16.9-3.5-29.7-10.6-38.5c-7.1-8.7-17.5-13.1-31.4-13.1
	c-13.9,0-24.5,4.4-31.8,13.2C781.4,395,777.8,407.7,777.8,424.5z"/>
<circle class="st0" cx="986.4" cy="411" r="33"/>
<rect x="10.6" y="349.2" class="st1" width="372" height="160.5"/>
<g>
	<path d="M153,481.8l-42.6-111.4h-0.7c0.8,8.8,1.2,19.3,1.2,31.5v79.9H97.4V356.1h22l39.8,103.6h0.7L200,356.1h21.8v125.6h-14.6v-81
		c0-9.3,0.4-19.4,1.2-30.2h-0.7l-43,111.2H153z"/>
	<path d="M297.1,385.8c4.2,0,7.9,0.3,11.3,1l-2,13.2c-3.9-0.9-7.3-1.3-10.3-1.3c-7.6,0-14.1,3.1-19.6,9.3s-8.1,13.9-8.1,23.1v50.5
		h-14.3v-94.2h11.8l1.6,17.4h0.7c3.5-6.1,7.7-10.9,12.6-14.2C285.8,387.5,291.2,385.8,297.1,385.8z"/>
	<path d="M368.4,398.6h-24v83.1h-14.3v-83.1h-16.8v-6.4l16.8-5.2v-5.2c0-23.1,10.1-34.7,30.3-34.7c5,0,10.8,1,17.5,3l-3.7,11.4
		c-5.5-1.8-10.2-2.7-14.1-2.7c-5.4,0-9.4,1.8-11.9,5.4c-2.6,3.6-3.9,9.3-3.9,17.2v6.1h24V398.6z"/>
	<path d="M428.6,385.8c4.2,0,7.9,0.3,11.3,1l-2,13.2c-3.9-0.9-7.3-1.3-10.3-1.3c-7.6,0-14.1,3.1-19.6,9.3s-8.1,13.9-8.1,23.1v50.5
		h-14.3v-94.2h11.8L399,405h0.7c3.5-6.1,7.7-10.9,12.6-14.2C417.3,387.5,422.7,385.8,428.6,385.8z"/>
	<path d="M497.3,483.5c-13.9,0-24.9-4.2-33-12.7c-8-8.5-12.1-20.3-12.1-35.3c0-15.2,3.7-27.2,11.2-36.2s17.5-13.4,30.1-13.4
		c11.8,0,21.1,3.9,28,11.6c6.9,7.8,10.3,18,10.3,30.7v9H467c0.3,11.1,3.1,19.5,8.4,25.2c5.3,5.7,12.8,8.6,22.4,8.6
		c10.1,0,20.2-2.1,30.1-6.4v12.7c-5,2.2-9.8,3.7-14.3,4.7C509,483,503.6,483.5,497.3,483.5z M493.4,397.8c-7.6,0-13.6,2.5-18.1,7.4
		c-4.5,4.9-7.1,11.7-7.9,20.5h49.2c0-9-2-15.9-6-20.7C506.6,400.2,500.8,397.8,493.4,397.8z"/>
	<path d="M596,483.5c-13.9,0-24.9-4.2-33-12.7c-8-8.5-12.1-20.3-12.1-35.3c0-15.2,3.7-27.2,11.2-36.2s17.5-13.4,30.1-13.4
		c11.8,0,21.1,3.9,28,11.6c6.9,7.8,10.3,18,10.3,30.7v9h-64.9c0.3,11.1,3.1,19.5,8.4,25.2c5.3,5.7,12.8,8.6,22.4,8.6
		c10.1,0,20.2-2.1,30.1-6.4v12.7c-5,2.2-9.8,3.7-14.3,4.7C607.8,483,602.4,483.5,596,483.5z M592.1,397.8c-7.6,0-13.6,2.5-18.1,7.4
		c-4.5,4.9-7.1,11.7-7.9,20.5h49.2c0-9-2-15.9-6-20.7C605.3,400.2,599.6,397.8,592.1,397.8z"/>
	<path d="M698.8,386c12.4,0,22,4.2,28.8,12.7c6.8,8.5,10.3,20.4,10.3,35.9s-3.5,27.5-10.4,36.1c-6.9,8.6-16.5,12.8-28.7,12.8
		c-6.1,0-11.7-1.1-16.8-3.4s-9.3-5.7-12.8-10.4h-1l-3,12.1H655V348h14.3v32.5c0,7.3-0.2,13.8-0.7,19.6h0.7
		C675.9,390.7,685.7,386,698.8,386z M696.7,398c-9.7,0-16.8,2.8-21.1,8.4s-6.4,15-6.4,28.2s2.2,22.7,6.6,28.4
		c4.4,5.7,11.5,8.6,21.2,8.6c8.8,0,15.3-3.2,19.6-9.6c4.3-6.4,6.4-15.6,6.4-27.5c0-12.3-2.1-21.4-6.4-27.4S705.7,398,696.7,398z"/>
	<path d="M1096.9,433.5c2.5-3.5,6.2-8.1,11.3-13.8l30.4-32.2h16.9l-38.2,40.1l40.8,54.1h-17.3l-33.3-44.5l-10.7,9.3v35.2h-14.1V348
		h14.1v70.9c0,3.2-0.2,8-0.7,14.6H1096.9z"/>
	<path d="M1236,456.1c0,8.8-3.3,15.5-9.8,20.3c-6.5,4.8-15.7,7.1-27.5,7.1c-12.5,0-22.2-2-29.2-5.9v-13.2c4.5,2.3,9.4,4.1,14.6,5.4
		c5.2,1.3,10.2,2,15,2c7.4,0,13.2-1.2,17.2-3.6c4-2.4,6-6,6-10.9c0-3.7-1.6-6.8-4.8-9.4c-3.2-2.6-9.4-5.7-18.6-9.2
		c-8.8-3.3-15-6.1-18.7-8.6c-3.7-2.4-6.4-5.2-8.2-8.3s-2.7-6.8-2.7-11.1c0-7.7,3.1-13.7,9.4-18.2c6.2-4.4,14.8-6.7,25.7-6.7
		c10.1,0,20.1,2.1,29.7,6.2l-5.1,11.6c-9.5-3.9-18-5.8-25.7-5.8c-6.8,0-11.9,1.1-15.3,3.2c-3.4,2.1-5.2,5-5.2,8.8
		c0,2.5,0.6,4.7,1.9,6.4c1.3,1.8,3.4,3.5,6.2,5.1c2.9,1.6,8.4,3.9,16.5,7c11.2,4.1,18.7,8.2,22.6,12.3
		C1234,444.6,1236,449.8,1236,456.1z"/>
</g>
</svg>
