<?xml version="1.0" encoding="utf-8"?>
<!-- Generator: Adobe Illustrator 19.2.0, SVG Export Plug-In . SVG Version: 6.00 Build 0)  -->
<svg version="1.1" id="Layer_1" xmlns="http://www.w3.org/2000/svg" xmlns:xlink="http://www.w3.org/1999/xlink" x="0px" y="0px"
	 viewBox="0 0 1520 704" style="enable-background:new 0 0 1520 704;" xml:space="preserve">
<style type="text/css">
	.st0{fill:#FFFEF4;}
	.st1{fill:#EEEEEE;}
	.st2{fill:#00131D;}
</style>
<g>
	<g>
		<path class="st0" d="M1190.8,582.1c-3.4,1.3-8.3,3.2-14.2,5.1c-5.9,1.9-12.9,4-20.3,5.7c-7.4,1.8-15.4,3.2-23.2,4.1
			c-7.8,0.9-15.5,1.2-22.4,0.9c-3.4-0.2-6.7-0.5-9.7-0.9c-3-0.5-5.7-1-8.1-1.6c-4.8-1.2-8.3-2.7-10.6-3.8c-0.6-0.3-1.1-0.5-1.5-0.8
			c-0.4-0.2-0.8-0.4-1.1-0.6c-0.6-0.3-0.9-0.5-0.9-0.5l-0.1,0c-0.5-0.3-0.9-0.5-1.4-0.8c-0.2-0.1-0.5-0.2-0.7-0.3
			c-0.2-0.1-0.5-0.2-0.7-0.4c-0.2-0.1-0.5-0.2-0.7-0.3c-0.2-0.1-0.5-0.2-0.7-0.3c-0.5-0.2-0.9-0.4-1.4-0.6c-0.2-0.1-0.4-0.2-0.6-0.2
			c-0.2-0.1-0.4-0.2-0.6-0.2c-0.2-0.1-0.4-0.1-0.6-0.2c-0.2-0.1-0.4-0.1-0.6-0.2c-0.4-0.1-0.8-0.3-1.2-0.4c-0.2-0.1-0.4-0.1-0.6-0.2
			c0,0-0.1,0-0.1,0c-0.2-0.1-0.4-0.1-0.5-0.2c-0.4-0.1-0.8-0.2-1.2-0.3l-0.3-0.1c0,0-0.1,0-0.1,0l-0.3-0.1c-0.2-0.1-0.4-0.1-0.6-0.2
			c-0.4-0.1-0.8-0.2-1.2-0.3c-0.4-0.1-0.8-0.2-1.2-0.3c-3.4-0.7-7-1.2-10.8-1.4c-3.8-0.3-7.7-0.3-11.5,0.3c-3.8,0.6-7.5,1.8-10.7,4
			c-1.3,0.9-2.5,2-3.5,3.2c-1.7-3.4-4.2-6-7.4-7.8c-3.4-1.9-7.3-2.7-11.1-2.9c-3.9-0.2-7.8,0.2-11.5,0.9c-3.8,0.6-7.3,1.5-10.6,2.5
			c-0.4,0.1-0.8,0.3-1.2,0.4c-0.4,0.1-0.8,0.3-1.2,0.4c-0.2,0.1-0.4,0.1-0.6,0.2l-0.3,0.1l-0.3,0.1c-0.4,0.1-0.8,0.3-1.2,0.4
			c-0.2,0.1-0.4,0.2-0.6,0.3c-0.2,0.1-0.4,0.2-0.6,0.2c-0.4,0.2-0.8,0.3-1.1,0.5c-0.2,0.1-0.4,0.2-0.6,0.3c-0.2,0.1-0.4,0.2-0.6,0.3
			c-0.2,0.1-0.4,0.2-0.6,0.3c-0.2,0.1-0.4,0.2-0.6,0.3c-0.5,0.2-0.9,0.5-1.4,0.8c-0.2,0.1-0.5,0.3-0.7,0.4c-0.2,0.1-0.5,0.3-0.7,0.4
			c-0.2,0.1-0.4,0.3-0.7,0.4c-0.2,0.1-0.5,0.3-0.7,0.4c-0.4,0.3-0.9,0.6-1.3,0.9l-0.1,0c0,0-0.3,0.2-0.8,0.6c-0.3,0.2-0.6,0.4-1,0.7
			c-0.4,0.3-0.9,0.6-1.4,0.9c-2.2,1.3-5.5,3.2-10.1,4.9c-2.3,0.9-4.9,1.7-7.8,2.4c-2.9,0.7-6.1,1.4-9.5,1.9
			c-6.8,1.1-14.5,1.5-22.4,1.4c-7.9-0.1-15.9-0.7-23.5-1.7c-7.6-1-14.7-2.3-20.8-3.6c-6.1-1.3-11.2-2.6-14.7-3.6
			c-1.8-0.5-3.1-0.9-4.1-1.2c-0.9-0.3-1.4-0.4-1.4-0.4s0.1,0.1,0.3,0.2c0.2,0.2,0.5,0.4,0.8,0.7c0.7,0.6,1.8,1.5,3.1,2.6
			c2.7,2.2,6.7,5.4,11.7,8.9c10,7.2,23.9,16.1,39.5,23.4c7.8,3.6,15.9,6.8,24,9.3c2,0.6,4,1.2,6,1.7c1,0.2,2,0.5,3,0.7
			c0.2,0.1,0.5,0.1,0.7,0.2c0.2,0.1,0.5,0.1,0.7,0.2c0.5,0.1,1,0.2,1.5,0.3c1.9,0.4,3.9,0.8,5.8,1.1c1,0.1,1.9,0.3,2.8,0.4
			c0.5,0.1,0.9,0.1,1.4,0.2c0.5,0.1,0.9,0.1,1.4,0.2c0.9,0.1,1.8,0.2,2.6,0.3c0.9,0.1,1.7,0.1,2.6,0.2c0.8,0.1,1.7,0.1,2.5,0.2
			c0.8,0,1.6,0.1,2.3,0.1c1.5,0.1,3,0.1,4.3,0.1c0.7,0,1.3,0,1.9,0c0.6,0,1.2,0,1.8-0.1c0.6,0,1.1,0,1.6-0.1c0.5,0,1,0,1.4-0.1
			c0.9-0.1,1.6-0.1,2.3-0.2c0.6-0.1,1.1-0.1,1.4-0.1c0.3,0,0.5,0,0.5,0c0.8-0.1,1.6-0.1,2.5-0.2c0.4,0,0.8-0.1,1.3-0.1
			c0.4,0,0.8-0.1,1.3-0.2c0.8-0.1,1.7-0.3,2.6-0.5c0.4-0.1,0.9-0.2,1.3-0.3c0.4-0.1,0.9-0.2,1.3-0.3l0.9-0.2l0.1-0.1
			c0.9-0.3,1.8-0.5,2.7-0.8c0.9-0.3,1.8-0.7,2.7-1c0.5-0.2,0.9-0.4,1.4-0.6c0.5-0.2,0.9-0.4,1.4-0.6c0.9-0.4,1.8-0.9,2.7-1.3
			c0.5-0.2,0.9-0.5,1.3-0.7c0.4-0.3,0.9-0.5,1.3-0.8c0.4-0.3,0.9-0.5,1.3-0.8c0.4-0.3,0.8-0.5,1.2-0.8c0.8-0.6,1.6-1.2,2.4-1.8
			c0.4-0.3,0.8-0.6,1.2-0.9c0.4-0.3,0.7-0.6,1.1-1c0.7-0.6,1.4-1.3,2.1-1.9l0.5-0.5l0.5-0.5c0.3-0.3,0.6-0.7,1-1
			c0.6-0.7,1.2-1.4,1.8-2.1c0.6-0.7,1.1-1.4,1.6-2.1c0.5-0.7,1-1.4,1.5-2.1c0.5-0.7,0.9-1.5,1.3-2.2c0.4-0.7,0.8-1.4,1.2-2.2
			c0.1-0.2,0.2-0.3,0.2-0.5c0.5,1.1,1,2.2,1.7,3.4c0.4,0.7,0.8,1.4,1.2,2.1c0.4,0.7,0.9,1.3,1.4,2c0.5,0.7,1,1.4,1.5,2
			c0.6,0.7,1.1,1.3,1.7,2c0.6,0.6,1.2,1.3,1.9,1.9c0.7,0.6,1.3,1.2,2,1.9c0.4,0.3,0.7,0.6,1.1,0.9l0.5,0.5l0.6,0.4
			c0.8,0.6,1.5,1.1,2.3,1.7c0.4,0.3,0.8,0.6,1.2,0.8c0.4,0.3,0.8,0.5,1.2,0.8c0.8,0.5,1.7,1,2.6,1.5c0.4,0.3,0.9,0.5,1.3,0.7
			c0.5,0.2,0.9,0.4,1.4,0.7c0.5,0.2,0.9,0.4,1.4,0.6c0.5,0.2,0.9,0.4,1.4,0.6c0.9,0.4,1.9,0.7,2.8,1.1c0.5,0.2,0.9,0.3,1.4,0.5
			c0.5,0.1,0.9,0.3,1.4,0.4c0.9,0.3,1.9,0.5,2.8,0.7c0.9,0.2,1.9,0.4,2.8,0.5l0.1,0.1l0.9,0.1c0.4,0.1,0.9,0.1,1.3,0.2
			c0.4,0,0.9,0.1,1.3,0.1c0.9,0.1,1.7,0.2,2.6,0.2c0.4,0,0.9,0,1.3,0c0.4,0,0.8,0,1.3,0c0.8,0,1.6,0,2.4-0.1c0,0,0.1,0,0.1,0
			c0.1,0,0.2,0,0.4,0c0.3,0,0.8,0,1.4,0c0.6,0,1.4,0,2.3-0.1c0.4,0,0.9,0,1.4-0.1c0.5,0,1-0.1,1.6-0.1c0.6,0,1.2-0.1,1.8-0.1
			c0.6,0,1.3-0.1,1.9-0.2c1.3-0.1,2.8-0.3,4.3-0.5c0.8-0.1,1.5-0.2,2.3-0.3c0.8-0.1,1.6-0.3,2.4-0.4c0.8-0.2,1.7-0.3,2.5-0.5
			c0.8-0.2,1.7-0.4,2.6-0.6c0.4-0.1,0.9-0.2,1.3-0.3c0.4-0.1,0.9-0.2,1.3-0.3c0.9-0.2,1.8-0.5,2.7-0.7c1.8-0.5,3.7-1.1,5.6-1.7
			c0.5-0.2,1-0.3,1.4-0.5c0.2-0.1,0.5-0.2,0.7-0.2c0.2-0.1,0.5-0.2,0.7-0.3c1-0.3,1.9-0.7,2.9-1c1.9-0.7,3.9-1.5,5.8-2.3
			c7.8-3.3,15.6-7.3,22.9-11.7c14.7-8.8,27.6-19.2,36.8-27.4c4.6-4.1,8.2-7.6,10.7-10.1c1.2-1.3,2.2-2.3,2.9-2.9
			c0.3-0.3,0.6-0.6,0.7-0.8c0.2-0.2,0.2-0.3,0.2-0.3s-0.5,0.2-1.4,0.6C1193.9,580.8,1192.5,581.4,1190.8,582.1z"/>
	</g>
	<path class="st0" d="M1141,312V92c0-8.3-7.1-15.2-15.3-15.9c-19.9-10-57.3-16.7-100.2-16.7c-42.8,0-80.1,6.7-100,16.7
		c-1.8,0.1-6.7,0.6-10.8,4.7c-2.9,2.9-4.7,6.9-4.7,11.3v0.4c0,0.1,0,0.2,0,0.2s0,0.2,0,0.2v219.3c-0.4,0-0.7,0.1-1.1,0.1
		c0,0,0,0,0-0.1c-47.9,6-79,15.6-79,26.4c0,18.3,87.9,33.1,196.3,33.1c108.4,0,196.3-14.7,196.3-33
		C1222.5,327.7,1190.4,318,1141,312z"/>
	<g>
		<path class="st0" d="M25.6,511.3v-50.7l32.1,50.7H25.6z M25.7,445.2v-33.3h44.5l29.7,47.2l-32.8,51.3L25.7,445.2z M103.7,453.3
			l26.3-41.4h30v99.3h-56.4V453.3z"/>
		<path class="st0" d="M174.2,511.3v-72.9h39.4v10.7c3.7-3.7,7.3-6.3,10.6-8c3.2-1.6,6.6-2.5,10.1-2.5c3.1,0,6,0.7,8.6,2
			c2.6,1.3,4.7,3.2,6.1,5.7c1.4,2.4,2.1,5.1,2.1,7.9c0,2.7-0.7,5.2-2,7.6c-1.3,2.3-3.1,4.1-5.5,5.5c-2.4,1.3-4.9,2-7.7,2
			c-4.4,0-8-1.5-11-4.5c-3-3-4.5-6.7-4.5-11.2c0-1.7,0.3-3.7,0.9-5.9c-2.3,1.5-4.9,3.8-7.9,6.9v56.6H174.2z"/>
		<path class="st0" d="M244.6,480.5h0.4c4.5,0.1,8.2,1.7,11.1,4.6c3,3,4.5,6.6,4.5,10.7c0,4.4-1.5,8.1-4.5,11
			c-3,2.9-6.7,4.4-11.1,4.4c-2.8,0-5.4-0.7-7.7-2.1c-2.4-1.4-4.3-3.3-5.7-5.7c-1.4-2.3-2.1-4.9-2.1-7.6c0-2.8,0.7-5.4,2-7.7
			c1.3-2.4,3.2-4.2,5.6-5.5C239.4,481.1,241.9,480.5,244.6,480.5z"/>
		<path class="st0" d="M336.3,511.3v-99.3h103.1v37.9l-8.1-5.9v36.7l-37.8-18.2v48.9H336.3z M429.7,442.6L393.4,415v46L429.7,442.6z
			"/>
		<path class="st0" d="M451.4,511.3v-72.9h39.4v10.7c3.7-3.7,7.3-6.3,10.6-8c3.2-1.6,6.6-2.5,10.1-2.5c3.1,0,6,0.7,8.6,2
			c2.6,1.3,4.7,3.2,6.1,5.7c1.4,2.4,2.1,5.1,2.1,7.9c0,2.7-0.7,5.2-2,7.6c-1.3,2.3-3.1,4.1-5.5,5.5c-2.4,1.3-4.9,2-7.7,2
			c-4.4,0-8-1.5-11-4.5c-3-3-4.5-6.7-4.5-11.2c0-1.7,0.3-3.7,0.9-5.9c-2.3,1.5-4.9,3.8-7.9,6.9v56.6H451.4z"/>
		<path class="st0" d="M615,483.9l3.8,1.8c-1.2,3.3-2.3,5.9-3.3,7.7c-1.1,1.9-2.4,3.8-4.2,5.7c-3.5,4-7.5,6.9-11.9,8.7
			c-6.2,2.6-13.6,4-22.3,4c-5,0-9.5-0.4-13.6-1.3c-4.1-0.8-7.7-2.1-10.8-3.7c-3.2-1.6-6.1-3.8-8.7-6.5c-3.4-3.5-5.9-7.4-7.7-11.8
			c-1.8-4.4-2.6-9.1-2.6-14.1c0-5.1,1-10,2.9-14.5c1.9-4.5,4.7-8.5,8.2-12c3.5-3.4,7.5-6,12.1-7.9c4.7-1.8,9.6-2.8,14.7-2.8h1.5
			v70.1c3.3,0.3,5.6,0.4,7,0.4c10.6,0,19-3,25.4-9.1c2.1-2,3.8-4,5-5.9C611.9,490.7,613.4,487.8,615,483.9z M620.7,474h-39.1v-36.9
			c3.6,0.3,6.6,0.6,9.2,1.1c2.3,0.4,4.6,1.2,6.7,2.2c4.6,1.8,8.8,4.6,12.5,8.4c2.5,2.5,4.7,5.5,6.5,8.8c1.9,3.5,3,6.7,3.5,9.6
			C620.3,469,620.5,471.3,620.7,474z"/>
		<path class="st0" d="M709,483.9l3.8,1.8c-1.2,3.3-2.3,5.9-3.3,7.7c-1,1.9-2.4,3.8-4.2,5.7c-3.5,4-7.5,6.9-11.9,8.7
			c-6.2,2.6-13.6,4-22.3,4c-5,0-9.5-0.4-13.6-1.3c-4.1-0.8-7.7-2.1-10.8-3.7c-3.2-1.6-6.1-3.8-8.7-6.5c-3.4-3.5-5.9-7.4-7.7-11.8
			c-1.8-4.4-2.6-9.1-2.6-14.1c0-5.1,1-10,2.9-14.5c1.9-4.5,4.7-8.5,8.2-12c3.5-3.4,7.5-6,12.1-7.9c4.7-1.8,9.6-2.8,14.7-2.8h1.5
			v70.1c3.3,0.3,5.6,0.4,7,0.4c10.6,0,19-3,25.4-9.1c2.1-2,3.8-4,5-5.9C705.9,490.7,707.4,487.8,709,483.9z M714.7,474h-39.1v-36.9
			c3.6,0.3,6.6,0.6,9.2,1.1c2.3,0.4,4.6,1.2,6.7,2.2c4.6,1.8,8.8,4.6,12.5,8.4c2.5,2.5,4.7,5.5,6.5,8.8c1.9,3.5,3,6.7,3.5,9.6
			C714.4,469,714.6,471.3,714.7,474z"/>
		<path class="st0" d="M725.9,511.3v-98.7h39.4v98.7H725.9z M773.7,511.1v-72.9c1.9-0.1,3.9-0.1,5.8-0.1c5,0,9.6,1,13.9,2.9
			c4.4,2,8.2,4.7,11.6,8.3c3.4,3.6,6,7.7,7.9,12.2c1.8,4.7,2.8,9.5,2.8,14.6c0,4.6-0.9,9.1-2.8,13.5c-1.8,4.3-4.4,8.1-7.7,11.5
			c-3.3,3.2-7.1,5.8-11.3,7.6c-4.2,1.8-8.8,2.7-13.6,2.7C778.9,511.4,776.7,511.3,773.7,511.1z"/>
		<path class="st0" d="M1213.5,511.3v-98.7h39.5v68.3l26.8-23.1l35.5,53.5h-45.8l-16.4-28.1h-0.3v28.1H1213.5z M1279.8,457.6
			l-12.4-19.2h35.1L1279.8,457.6z"/>
		<path class="st0" d="M1353.3,493.6l-13.8-5c-6.3-2.2-11.1-5.5-14.5-10c-3.5-4.5-5.2-9.5-5.2-15.1c0-4.8,1.3-9.3,3.8-13.4
			c2.5-4.1,5.9-7.3,10.3-9.6c4.3-2.3,9.1-3.5,14.4-3.5c0.9,0,1.7,0,2.5,0.1c-1.4,1.8-2.2,3.1-2.5,3.8c-0.4,0.9-0.6,1.9-0.6,3.1
			c0,4.9,4.2,9,12.5,12.4l8.9,3.5c4.8,2,8.8,4.3,11.9,6.9c3.1,2.6,5.5,5.6,7.2,8.9c1.6,3.3,2.5,7,2.5,10.9c0,4.6-1.1,8.8-3.2,12.5
			c-2.2,3.8-5.1,6.8-8.9,9c-3.8,2.2-8,3.3-12.4,3.3c-1.8,0-4.1-0.1-6.9-0.4c2.4-2.6,3.5-5.1,3.5-7.5
			C1362.8,499.2,1359.6,495.9,1353.3,493.6z M1333,489.9c2,0,3.8,0.5,5.6,1.5c1.7,1,3.1,2.4,4.1,4.1c1,1.8,1.5,3.6,1.5,5.6
			c0,2.1-0.5,3.9-1.4,5.7c-1,1.8-2.4,3.1-4.2,4.2s-3.6,1.5-5.6,1.5c-2.1,0-4-0.5-5.7-1.5c-1.8-1-3.2-2.4-4.2-4.2
			c-1-1.7-1.5-3.6-1.5-5.7c0-2,0.5-3.8,1.5-5.6c1-1.7,2.4-3.1,4.2-4.1S1330.9,489.9,1333,489.9z M1375.4,436.1c2.1,0,4,0.5,5.7,1.5
			s3.2,2.4,4.2,4.2s1.5,3.7,1.5,5.7c0,2-0.5,3.8-1.4,5.5c-1,1.7-2.4,3.1-4.2,4.1c-1.8,1-3.7,1.6-5.8,1.6c-3.1,0-5.7-1.1-7.9-3.3
			c-2.2-2.2-3.3-4.9-3.3-7.9c0-3.1,1.1-5.8,3.3-8S1372.4,436.1,1375.4,436.1z"/>
	</g>
	<g>
		<ellipse class="st0" cx="1097" cy="466.8" rx="37.4" ry="26.2"/>
	</g>
	<g>
		<path class="st0" d="M936.3,530.3c-33.8,0-61.3-27.5-61.3-61.3s27.5-61.3,61.3-61.3s61.3,27.5,61.3,61.3S970.1,530.3,936.3,530.3z
			 M936.3,417.6c-28.3,0-51.3,23-51.3,51.3s23,51.3,51.3,51.3s51.3-23,51.3-51.3S964.6,417.6,936.3,417.6z"/>
	</g>
</g>
<g>
</g>
<g>
</g>
<g>
	<g>
		<path class="st1" d="M1189.8,581.1c-3.4,1.3-8.3,3.2-14.2,5.1c-5.9,1.9-12.9,4-20.3,5.7c-7.4,1.8-15.4,3.2-23.2,4.1
			c-7.8,0.9-15.5,1.2-22.4,0.9c-3.4-0.2-6.7-0.5-9.7-0.9c-3-0.5-5.7-1-8.1-1.6c-4.8-1.2-8.3-2.7-10.6-3.8c-0.6-0.3-1.1-0.5-1.5-0.8
			c-0.4-0.2-0.8-0.4-1.1-0.6c-0.6-0.3-0.9-0.5-0.9-0.5l-0.1,0c-0.5-0.3-0.9-0.5-1.4-0.8c-0.2-0.1-0.5-0.2-0.7-0.3
			c-0.2-0.1-0.5-0.2-0.7-0.4c-0.2-0.1-0.5-0.2-0.7-0.3c-0.2-0.1-0.5-0.2-0.7-0.3c-0.5-0.2-0.9-0.4-1.4-0.6c-0.2-0.1-0.4-0.2-0.6-0.2
			c-0.2-0.1-0.4-0.2-0.6-0.2c-0.2-0.1-0.4-0.1-0.6-0.2c-0.2-0.1-0.4-0.1-0.6-0.2c-0.4-0.1-0.8-0.3-1.2-0.4c-0.2-0.1-0.4-0.1-0.6-0.2
			c0,0-0.1,0-0.1,0c-0.2-0.1-0.4-0.1-0.5-0.2c-0.4-0.1-0.8-0.2-1.2-0.3l-0.3-0.1c0,0-0.1,0-0.1,0l-0.3-0.1c-0.2-0.1-0.4-0.1-0.6-0.2
			c-0.4-0.1-0.8-0.2-1.2-0.3c-0.4-0.1-0.8-0.2-1.2-0.3c-3.4-0.7-7-1.2-10.8-1.4c-3.8-0.3-7.7-0.3-11.5,0.3c-3.8,0.6-7.5,1.8-10.7,4
			c-1.3,0.9-2.5,2-3.5,3.2c-1.7-3.4-4.2-6-7.4-7.8c-3.4-1.9-7.3-2.7-11.1-2.9c-3.9-0.2-7.8,0.2-11.5,0.9c-3.8,0.6-7.3,1.5-10.6,2.5
			c-0.4,0.1-0.8,0.3-1.2,0.4c-0.4,0.1-0.8,0.3-1.2,0.4c-0.2,0.1-0.4,0.1-0.6,0.2l-0.3,0.1l-0.3,0.1c-0.4,0.1-0.8,0.3-1.2,0.4
			c-0.2,0.1-0.4,0.2-0.6,0.3c-0.2,0.1-0.4,0.2-0.6,0.2c-0.4,0.2-0.8,0.3-1.1,0.5c-0.2,0.1-0.4,0.2-0.6,0.3c-0.2,0.1-0.4,0.2-0.6,0.3
			c-0.2,0.1-0.4,0.2-0.6,0.3c-0.2,0.1-0.4,0.2-0.6,0.3c-0.5,0.2-0.9,0.5-1.4,0.8c-0.2,0.1-0.5,0.3-0.7,0.4c-0.2,0.1-0.5,0.3-0.7,0.4
			c-0.2,0.1-0.4,0.3-0.7,0.4c-0.2,0.1-0.5,0.3-0.7,0.4c-0.4,0.3-0.9,0.6-1.3,0.9l-0.1,0c0,0-0.3,0.2-0.8,0.6c-0.3,0.2-0.6,0.4-1,0.7
			c-0.4,0.3-0.9,0.6-1.4,0.9c-2.2,1.3-5.5,3.2-10.1,4.9c-2.3,0.9-4.9,1.7-7.8,2.4c-2.9,0.7-6.1,1.4-9.5,1.9
			c-6.8,1.1-14.5,1.5-22.4,1.4c-7.9-0.1-15.9-0.7-23.5-1.7c-7.6-1-14.7-2.3-20.8-3.6c-6.1-1.3-11.2-2.6-14.7-3.6
			c-1.8-0.5-3.1-0.9-4.1-1.2c-0.9-0.3-1.4-0.4-1.4-0.4s0.1,0.1,0.3,0.2c0.2,0.2,0.5,0.4,0.8,0.7c0.7,0.6,1.8,1.5,3.1,2.6
			c2.7,2.2,6.7,5.4,11.7,8.9c10,7.2,23.9,16.1,39.5,23.4c7.8,3.6,15.9,6.8,24,9.3c2,0.6,4,1.2,6,1.7c1,0.2,2,0.5,3,0.7
			c0.2,0.1,0.5,0.1,0.7,0.2c0.2,0.1,0.5,0.1,0.7,0.2c0.5,0.1,1,0.2,1.5,0.3c1.9,0.4,3.9,0.8,5.8,1.1c1,0.1,1.9,0.3,2.8,0.4
			c0.5,0.1,0.9,0.1,1.4,0.2c0.5,0.1,0.9,0.1,1.4,0.2c0.9,0.1,1.8,0.2,2.6,0.3c0.9,0.1,1.7,0.1,2.6,0.2c0.8,0.1,1.7,0.1,2.5,0.2
			c0.8,0,1.6,0.1,2.3,0.1c1.5,0.1,3,0.1,4.3,0.1c0.7,0,1.3,0,1.9,0c0.6,0,1.2,0,1.8-0.1c0.6,0,1.1,0,1.6-0.1c0.5,0,1,0,1.4-0.1
			c0.9-0.1,1.6-0.1,2.3-0.2c0.6-0.1,1.1-0.1,1.4-0.1c0.3,0,0.5,0,0.5,0c0.8-0.1,1.6-0.1,2.5-0.2c0.4,0,0.8-0.1,1.3-0.1
			c0.4,0,0.8-0.1,1.3-0.2c0.8-0.1,1.7-0.3,2.6-0.5c0.4-0.1,0.9-0.2,1.3-0.3c0.4-0.1,0.9-0.2,1.3-0.3l0.9-0.2l0.1-0.1
			c0.9-0.3,1.8-0.5,2.7-0.8c0.9-0.3,1.8-0.7,2.7-1c0.5-0.2,0.9-0.4,1.4-0.6c0.5-0.2,0.9-0.4,1.4-0.6c0.9-0.4,1.8-0.9,2.7-1.3
			c0.5-0.2,0.9-0.5,1.3-0.7c0.4-0.3,0.9-0.5,1.3-0.8c0.4-0.3,0.9-0.5,1.3-0.8c0.4-0.3,0.8-0.5,1.2-0.8c0.8-0.6,1.6-1.2,2.4-1.8
			c0.4-0.3,0.8-0.6,1.2-0.9c0.4-0.3,0.7-0.6,1.1-1c0.7-0.6,1.4-1.3,2.1-1.9l0.5-0.5l0.5-0.5c0.3-0.3,0.6-0.7,1-1
			c0.6-0.7,1.2-1.4,1.8-2.1c0.6-0.7,1.1-1.4,1.6-2.1c0.5-0.7,1-1.4,1.5-2.1c0.5-0.7,0.9-1.5,1.3-2.2c0.4-0.7,0.8-1.4,1.2-2.2
			c0.1-0.2,0.2-0.3,0.2-0.5c0.5,1.1,1,2.2,1.7,3.4c0.4,0.7,0.8,1.4,1.2,2.1c0.4,0.7,0.9,1.3,1.4,2c0.5,0.7,1,1.4,1.5,2
			c0.6,0.7,1.1,1.3,1.7,2c0.6,0.6,1.2,1.3,1.9,1.9c0.7,0.6,1.3,1.2,2,1.9c0.4,0.3,0.7,0.6,1.1,0.9l0.5,0.5l0.6,0.4
			c0.8,0.6,1.5,1.1,2.3,1.7c0.4,0.3,0.8,0.6,1.2,0.8c0.4,0.3,0.8,0.5,1.2,0.8c0.8,0.5,1.7,1,2.6,1.5c0.4,0.3,0.9,0.5,1.3,0.7
			c0.5,0.2,0.9,0.4,1.4,0.7c0.5,0.2,0.9,0.4,1.4,0.6c0.5,0.2,0.9,0.4,1.4,0.6c0.9,0.4,1.9,0.7,2.8,1.1c0.5,0.2,0.9,0.3,1.4,0.5
			c0.5,0.1,0.9,0.3,1.4,0.4c0.9,0.3,1.9,0.5,2.8,0.7c0.9,0.2,1.9,0.4,2.8,0.5l0.1,0.1l0.9,0.1c0.4,0.1,0.9,0.1,1.3,0.2
			c0.4,0,0.9,0.1,1.3,0.1c0.9,0.1,1.7,0.2,2.6,0.2c0.4,0,0.9,0,1.3,0c0.4,0,0.8,0,1.3,0c0.8,0,1.6,0,2.4-0.1c0,0,0.1,0,0.1,0
			c0.1,0,0.2,0,0.4,0c0.3,0,0.8,0,1.4,0c0.6,0,1.4,0,2.3-0.1c0.4,0,0.9,0,1.4-0.1c0.5,0,1-0.1,1.6-0.1c0.6,0,1.2-0.1,1.8-0.1
			c0.6,0,1.3-0.1,1.9-0.2c1.3-0.1,2.8-0.3,4.3-0.5c0.8-0.1,1.5-0.2,2.3-0.3c0.8-0.1,1.6-0.3,2.4-0.4c0.8-0.2,1.7-0.3,2.5-0.5
			c0.8-0.2,1.7-0.4,2.6-0.6c0.4-0.1,0.9-0.2,1.3-0.3c0.4-0.1,0.9-0.2,1.3-0.3c0.9-0.2,1.8-0.5,2.7-0.7c1.8-0.5,3.7-1.1,5.6-1.7
			c0.5-0.2,1-0.3,1.4-0.5c0.2-0.1,0.5-0.2,0.7-0.2c0.2-0.1,0.5-0.2,0.7-0.3c1-0.3,1.9-0.7,2.9-1c1.9-0.7,3.9-1.5,5.8-2.3
			c7.8-3.3,15.6-7.3,22.9-11.7c14.7-8.8,27.6-19.2,36.8-27.4c4.6-4.1,8.2-7.6,10.7-10.1c1.2-1.3,2.2-2.3,2.9-2.9
			c0.3-0.3,0.6-0.6,0.7-0.8c0.2-0.2,0.2-0.3,0.2-0.3s-0.5,0.2-1.4,0.6C1192.9,579.8,1191.5,580.4,1189.8,581.1z"/>
	</g>
	<path class="st1" d="M1140,311V91c0-8.3-7.1-15.2-15.3-15.9c-19.9-10-57.3-16.7-100.2-16.7c-42.8,0-80.1,6.7-100,16.7
		c-1.8,0.1-6.7,0.6-10.8,4.7c-2.9,2.9-4.7,6.9-4.7,11.3v0.4c0,0.1,0,0.2,0,0.2s0,0.2,0,0.2v219.3c-0.4,0-0.7,0.1-1.1,0.1
		c0,0,0,0,0-0.1c-47.9,6-79,15.6-79,26.4c0,18.3,87.9,33.1,196.3,33.1c108.4,0,196.3-14.7,196.3-33
		C1221.5,326.7,1189.4,317,1140,311z"/>
	<g>
		<path class="st1" d="M24.6,510.3v-50.7l32.1,50.7H24.6z M24.7,444.2v-33.3h44.5l29.7,47.2l-32.8,51.3L24.7,444.2z M102.7,452.3
			l26.3-41.4h30v99.3h-56.4V452.3z"/>
		<path class="st1" d="M173.2,510.3v-72.9h39.4v10.7c3.7-3.7,7.3-6.3,10.6-8c3.2-1.6,6.6-2.5,10.1-2.5c3.1,0,6,0.7,8.6,2
			c2.6,1.3,4.7,3.2,6.1,5.7c1.4,2.4,2.1,5.1,2.1,7.9c0,2.7-0.7,5.2-2,7.6c-1.3,2.3-3.1,4.1-5.5,5.5c-2.4,1.3-4.9,2-7.7,2
			c-4.4,0-8-1.5-11-4.5c-3-3-4.5-6.7-4.5-11.2c0-1.7,0.3-3.7,0.9-5.9c-2.3,1.5-4.9,3.8-7.9,6.9v56.6H173.2z"/>
		<path class="st1" d="M243.6,479.5h0.4c4.5,0.1,8.2,1.7,11.1,4.6c3,3,4.5,6.6,4.5,10.7c0,4.4-1.5,8.1-4.5,11
			c-3,2.9-6.7,4.4-11.1,4.4c-2.8,0-5.4-0.7-7.7-2.1c-2.4-1.4-4.3-3.3-5.7-5.7c-1.4-2.3-2.1-4.9-2.1-7.6c0-2.8,0.7-5.4,2-7.7
			c1.3-2.4,3.2-4.2,5.6-5.5C238.4,480.1,240.9,479.5,243.6,479.5z"/>
		<path class="st1" d="M335.3,510.3v-99.3h103.1v37.9l-8.1-5.9v36.7l-37.8-18.2v48.9H335.3z M428.7,441.6L392.4,414v46L428.7,441.6z
			"/>
		<path class="st1" d="M450.4,510.3v-72.9h39.4v10.7c3.7-3.7,7.3-6.3,10.6-8c3.2-1.6,6.6-2.5,10.1-2.5c3.1,0,6,0.7,8.6,2
			c2.6,1.3,4.7,3.2,6.1,5.7c1.4,2.4,2.1,5.1,2.1,7.9c0,2.7-0.7,5.2-2,7.6c-1.3,2.3-3.1,4.1-5.5,5.5c-2.4,1.3-4.9,2-7.7,2
			c-4.4,0-8-1.5-11-4.5c-3-3-4.5-6.7-4.5-11.2c0-1.7,0.3-3.7,0.9-5.9c-2.3,1.5-4.9,3.8-7.9,6.9v56.6H450.4z"/>
		<path class="st1" d="M614,482.9l3.8,1.8c-1.2,3.3-2.3,5.9-3.3,7.7c-1.1,1.9-2.4,3.8-4.2,5.7c-3.5,4-7.5,6.9-11.9,8.7
			c-6.2,2.6-13.6,4-22.3,4c-5,0-9.5-0.4-13.6-1.3c-4.1-0.8-7.7-2.1-10.8-3.7c-3.2-1.6-6.1-3.8-8.7-6.5c-3.4-3.5-5.9-7.4-7.7-11.8
			c-1.8-4.4-2.6-9.1-2.6-14.1c0-5.1,1-10,2.9-14.5c1.9-4.5,4.7-8.5,8.2-12c3.5-3.4,7.5-6,12.1-7.9c4.7-1.8,9.6-2.8,14.7-2.8h1.5
			v70.1c3.3,0.3,5.6,0.4,7,0.4c10.6,0,19-3,25.4-9.1c2.1-2,3.8-4,5-5.9C610.9,489.7,612.4,486.8,614,482.9z M619.7,473h-39.1v-36.9
			c3.6,0.3,6.6,0.6,9.2,1.1c2.3,0.4,4.6,1.2,6.7,2.2c4.6,1.8,8.8,4.6,12.5,8.4c2.5,2.5,4.7,5.5,6.5,8.8c1.9,3.5,3,6.7,3.5,9.6
			C619.3,468,619.5,470.3,619.7,473z"/>
		<path class="st1" d="M708,482.9l3.8,1.8c-1.2,3.3-2.3,5.9-3.3,7.7c-1,1.9-2.4,3.8-4.2,5.7c-3.5,4-7.5,6.9-11.9,8.7
			c-6.2,2.6-13.6,4-22.3,4c-5,0-9.5-0.4-13.6-1.3c-4.1-0.8-7.7-2.1-10.8-3.7c-3.2-1.6-6.1-3.8-8.7-6.5c-3.4-3.5-5.9-7.4-7.7-11.8
			c-1.8-4.4-2.6-9.1-2.6-14.1c0-5.1,1-10,2.9-14.5c1.9-4.5,4.7-8.5,8.2-12c3.5-3.4,7.5-6,12.1-7.9c4.7-1.8,9.6-2.8,14.7-2.8h1.5
			v70.1c3.3,0.3,5.6,0.4,7,0.4c10.6,0,19-3,25.4-9.1c2.1-2,3.8-4,5-5.9C704.9,489.7,706.4,486.8,708,482.9z M713.7,473h-39.1v-36.9
			c3.6,0.3,6.6,0.6,9.2,1.1c2.3,0.4,4.6,1.2,6.7,2.2c4.6,1.8,8.8,4.6,12.5,8.4c2.5,2.5,4.7,5.5,6.5,8.8c1.9,3.5,3,6.7,3.5,9.6
			C713.4,468,713.6,470.3,713.7,473z"/>
		<path class="st1" d="M724.9,510.3v-98.7h39.4v98.7H724.9z M772.7,510.1v-72.9c1.9-0.1,3.9-0.1,5.8-0.1c5,0,9.6,1,13.9,2.9
			c4.4,2,8.2,4.7,11.6,8.3c3.4,3.6,6,7.7,7.9,12.2c1.8,4.7,2.8,9.5,2.8,14.6c0,4.6-0.9,9.1-2.8,13.5c-1.8,4.3-4.4,8.1-7.7,11.5
			c-3.3,3.2-7.1,5.8-11.3,7.6c-4.2,1.8-8.8,2.7-13.6,2.7C777.9,510.4,775.7,510.3,772.7,510.1z"/>
		<path class="st1" d="M1212.5,510.3v-98.7h39.5v68.3l26.8-23.1l35.5,53.5h-45.8l-16.4-28.1h-0.3v28.1H1212.5z M1278.8,456.6
			l-12.4-19.2h35.1L1278.8,456.6z"/>
		<path class="st1" d="M1352.3,492.6l-13.8-5c-6.3-2.2-11.1-5.5-14.5-10c-3.5-4.5-5.2-9.5-5.2-15.1c0-4.8,1.3-9.3,3.8-13.4
			c2.5-4.1,5.9-7.3,10.3-9.6c4.3-2.3,9.1-3.5,14.4-3.5c0.9,0,1.7,0,2.5,0.1c-1.4,1.8-2.2,3.1-2.5,3.8c-0.4,0.9-0.6,1.9-0.6,3.1
			c0,4.9,4.2,9,12.5,12.4l8.9,3.5c4.8,2,8.8,4.3,11.9,6.9c3.1,2.6,5.5,5.6,7.2,8.9c1.6,3.3,2.5,7,2.5,10.9c0,4.6-1.1,8.8-3.2,12.5
			c-2.2,3.8-5.1,6.8-8.9,9c-3.8,2.2-8,3.3-12.4,3.3c-1.8,0-4.1-0.1-6.9-0.4c2.4-2.6,3.5-5.1,3.5-7.5
			C1361.8,498.2,1358.6,494.9,1352.3,492.6z M1332,488.9c2,0,3.8,0.5,5.6,1.5c1.7,1,3.1,2.4,4.1,4.1c1,1.8,1.5,3.6,1.5,5.6
			c0,2.1-0.5,3.9-1.4,5.7c-1,1.8-2.4,3.1-4.2,4.2s-3.6,1.5-5.6,1.5c-2.1,0-4-0.5-5.7-1.5c-1.8-1-3.2-2.4-4.2-4.2
			c-1-1.7-1.5-3.6-1.5-5.7c0-2,0.5-3.8,1.5-5.6c1-1.7,2.4-3.1,4.2-4.1S1329.9,488.9,1332,488.9z M1374.4,435.1c2.1,0,4,0.5,5.7,1.5
			s3.2,2.4,4.2,4.2s1.5,3.7,1.5,5.7c0,2-0.5,3.8-1.4,5.5c-1,1.7-2.4,3.1-4.2,4.1c-1.8,1-3.7,1.6-5.8,1.6c-3.1,0-5.7-1.1-7.9-3.3
			c-2.2-2.2-3.3-4.9-3.3-7.9c0-3.1,1.1-5.8,3.3-8S1371.4,435.1,1374.4,435.1z"/>
	</g>
	<g>
		<ellipse class="st1" cx="1096" cy="465.8" rx="37.4" ry="26.2"/>
	</g>
	<g>
		<path class="st1" d="M935.3,529.3c-33.8,0-61.3-27.5-61.3-61.3s27.5-61.3,61.3-61.3s61.3,27.5,61.3,61.3S969.1,529.3,935.3,529.3z
			 M935.3,416.6c-28.3,0-51.3,23-51.3,51.3s23,51.3,51.3,51.3s51.3-23,51.3-51.3S963.6,416.6,935.3,416.6z"/>
	</g>
</g>
<g>
	<g>
		<path class="st2" d="M1183.8,576.1c-3.4,1.3-8.3,3.2-14.2,5.1c-5.9,1.9-12.9,4-20.3,5.7c-7.4,1.8-15.4,3.2-23.2,4.1
			c-7.8,0.9-15.5,1.2-22.4,0.9c-3.4-0.2-6.7-0.5-9.7-0.9c-3-0.5-5.7-1-8.1-1.6c-4.8-1.2-8.3-2.7-10.6-3.8c-0.6-0.3-1.1-0.5-1.5-0.8
			c-0.4-0.2-0.8-0.4-1.1-0.6c-0.6-0.3-0.9-0.5-0.9-0.5l-0.1,0c-0.5-0.3-0.9-0.5-1.4-0.8c-0.2-0.1-0.5-0.2-0.7-0.3
			c-0.2-0.1-0.5-0.2-0.7-0.4c-0.2-0.1-0.5-0.2-0.7-0.3c-0.2-0.1-0.5-0.2-0.7-0.3c-0.5-0.2-0.9-0.4-1.4-0.6c-0.2-0.1-0.4-0.2-0.6-0.2
			c-0.2-0.1-0.4-0.2-0.6-0.2c-0.2-0.1-0.4-0.1-0.6-0.2c-0.2-0.1-0.4-0.1-0.6-0.2c-0.4-0.1-0.8-0.3-1.2-0.4c-0.2-0.1-0.4-0.1-0.6-0.2
			c0,0-0.1,0-0.1,0c-0.2-0.1-0.4-0.1-0.5-0.2c-0.4-0.1-0.8-0.2-1.2-0.3l-0.3-0.1c0,0-0.1,0-0.1,0l-0.3-0.1c-0.2-0.1-0.4-0.1-0.6-0.2
			c-0.4-0.1-0.8-0.2-1.2-0.3c-0.4-0.1-0.8-0.2-1.2-0.3c-3.4-0.7-7-1.2-10.8-1.4c-3.8-0.3-7.7-0.3-11.5,0.3c-3.8,0.6-7.5,1.8-10.7,4
			c-1.3,0.9-2.5,2-3.5,3.2c-1.7-3.4-4.2-6-7.4-7.8c-3.4-1.9-7.3-2.7-11.1-2.9c-3.9-0.2-7.8,0.2-11.5,0.9c-3.8,0.6-7.3,1.5-10.6,2.5
			c-0.4,0.1-0.8,0.3-1.2,0.4c-0.4,0.1-0.8,0.3-1.2,0.4c-0.2,0.1-0.4,0.1-0.6,0.2l-0.3,0.1l-0.3,0.1c-0.4,0.1-0.8,0.3-1.2,0.4
			c-0.2,0.1-0.4,0.2-0.6,0.3c-0.2,0.1-0.4,0.2-0.6,0.2c-0.4,0.2-0.8,0.3-1.1,0.5c-0.2,0.1-0.4,0.2-0.6,0.3c-0.2,0.1-0.4,0.2-0.6,0.3
			c-0.2,0.1-0.4,0.2-0.6,0.3c-0.2,0.1-0.4,0.2-0.6,0.3c-0.5,0.2-0.9,0.5-1.4,0.8c-0.2,0.1-0.5,0.3-0.7,0.4c-0.2,0.1-0.5,0.3-0.7,0.4
			c-0.2,0.1-0.4,0.3-0.7,0.4c-0.2,0.1-0.5,0.3-0.7,0.4c-0.4,0.3-0.9,0.6-1.3,0.9l-0.1,0c0,0-0.3,0.2-0.8,0.6c-0.3,0.2-0.6,0.4-1,0.7
			c-0.4,0.3-0.9,0.6-1.4,0.9c-2.2,1.3-5.5,3.2-10.1,4.9c-2.3,0.9-4.9,1.7-7.8,2.4c-2.9,0.7-6.1,1.4-9.5,1.9
			c-6.8,1.1-14.5,1.5-22.4,1.4c-7.9-0.1-15.9-0.7-23.5-1.7c-7.6-1-14.7-2.3-20.8-3.6c-6.1-1.3-11.2-2.6-14.7-3.6
			c-1.8-0.5-3.1-0.9-4.1-1.2c-0.9-0.3-1.4-0.4-1.4-0.4s0.1,0.1,0.3,0.2c0.2,0.2,0.5,0.4,0.8,0.7c0.7,0.6,1.8,1.5,3.1,2.6
			c2.7,2.2,6.7,5.4,11.7,8.9c10,7.2,23.9,16.1,39.5,23.4c7.8,3.6,15.9,6.8,24,9.3c2,0.6,4,1.2,6,1.7c1,0.2,2,0.5,3,0.7
			c0.2,0.1,0.5,0.1,0.7,0.2c0.2,0.1,0.5,0.1,0.7,0.2c0.5,0.1,1,0.2,1.5,0.3c1.9,0.4,3.9,0.8,5.8,1.1c1,0.1,1.9,0.3,2.8,0.4
			c0.5,0.1,0.9,0.1,1.4,0.2c0.5,0.1,0.9,0.1,1.4,0.2c0.9,0.1,1.8,0.2,2.6,0.3c0.9,0.1,1.7,0.1,2.6,0.2c0.8,0.1,1.7,0.1,2.5,0.2
			c0.8,0,1.6,0.1,2.3,0.1c1.5,0.1,3,0.1,4.3,0.1c0.7,0,1.3,0,1.9,0c0.6,0,1.2,0,1.8-0.1c0.6,0,1.1,0,1.6-0.1c0.5,0,1,0,1.4-0.1
			c0.9-0.1,1.6-0.1,2.3-0.2c0.6-0.1,1.1-0.1,1.4-0.1c0.3,0,0.5,0,0.5,0c0.8-0.1,1.6-0.1,2.5-0.2c0.4,0,0.8-0.1,1.3-0.1
			c0.4,0,0.8-0.1,1.3-0.2c0.8-0.1,1.7-0.3,2.6-0.5c0.4-0.1,0.9-0.2,1.3-0.3c0.4-0.1,0.9-0.2,1.3-0.3l0.9-0.2l0.1-0.1
			c0.9-0.3,1.8-0.5,2.7-0.8c0.9-0.3,1.8-0.7,2.7-1c0.5-0.2,0.9-0.4,1.4-0.6c0.5-0.2,0.9-0.4,1.4-0.6c0.9-0.4,1.8-0.9,2.7-1.3
			c0.5-0.2,0.9-0.5,1.3-0.7c0.4-0.3,0.9-0.5,1.3-0.8c0.4-0.3,0.9-0.5,1.3-0.8c0.4-0.3,0.8-0.5,1.2-0.8c0.8-0.6,1.6-1.2,2.4-1.8
			c0.4-0.3,0.8-0.6,1.2-0.9c0.4-0.3,0.7-0.6,1.1-1c0.7-0.6,1.4-1.3,2.1-1.9l0.5-0.5l0.5-0.5c0.3-0.3,0.6-0.7,1-1
			c0.6-0.7,1.2-1.4,1.8-2.1c0.6-0.7,1.1-1.4,1.6-2.1c0.5-0.7,1-1.4,1.5-2.1c0.5-0.7,0.9-1.5,1.3-2.2c0.4-0.7,0.8-1.4,1.2-2.2
			c0.1-0.2,0.2-0.3,0.2-0.5c0.5,1.1,1,2.2,1.7,3.4c0.4,0.7,0.8,1.4,1.2,2.1c0.4,0.7,0.9,1.3,1.4,2c0.5,0.7,1,1.4,1.5,2
			c0.6,0.7,1.1,1.3,1.7,2c0.6,0.6,1.2,1.3,1.9,1.9c0.7,0.6,1.3,1.2,2,1.9c0.4,0.3,0.7,0.6,1.1,0.9l0.5,0.5l0.6,0.4
			c0.8,0.6,1.5,1.1,2.3,1.7c0.4,0.3,0.8,0.6,1.2,0.8c0.4,0.3,0.8,0.5,1.2,0.8c0.8,0.5,1.7,1,2.6,1.5c0.4,0.3,0.9,0.5,1.3,0.7
			c0.5,0.2,0.9,0.4,1.4,0.7c0.5,0.2,0.9,0.4,1.4,0.6c0.5,0.2,0.9,0.4,1.4,0.6c0.9,0.4,1.9,0.7,2.8,1.1c0.5,0.2,0.9,0.3,1.4,0.5
			c0.5,0.1,0.9,0.3,1.4,0.4c0.9,0.3,1.9,0.5,2.8,0.7c0.9,0.2,1.9,0.4,2.8,0.5l0.1,0.1l0.9,0.1c0.4,0.1,0.9,0.1,1.3,0.2
			c0.4,0,0.9,0.1,1.3,0.1c0.9,0.1,1.7,0.2,2.6,0.2c0.4,0,0.9,0,1.3,0c0.4,0,0.8,0,1.3,0c0.8,0,1.6,0,2.4-0.1c0,0,0.1,0,0.1,0
			c0.1,0,0.2,0,0.4,0c0.3,0,0.8,0,1.4,0c0.6,0,1.4,0,2.3-0.1c0.4,0,0.9,0,1.4-0.1c0.5,0,1-0.1,1.6-0.1c0.6,0,1.2-0.1,1.8-0.1
			c0.6,0,1.3-0.1,1.9-0.2c1.3-0.1,2.8-0.3,4.3-0.5c0.8-0.1,1.5-0.2,2.3-0.3c0.8-0.1,1.6-0.3,2.4-0.4c0.8-0.2,1.7-0.3,2.5-0.5
			c0.8-0.2,1.7-0.4,2.6-0.6c0.4-0.1,0.9-0.2,1.3-0.3c0.4-0.1,0.9-0.2,1.3-0.3c0.9-0.2,1.8-0.5,2.7-0.7c1.8-0.5,3.7-1.1,5.6-1.7
			c0.5-0.2,1-0.3,1.4-0.5c0.2-0.1,0.5-0.2,0.7-0.2c0.2-0.1,0.5-0.2,0.7-0.3c1-0.3,1.9-0.7,2.9-1c1.9-0.7,3.9-1.5,5.8-2.3
			c7.8-3.3,15.6-7.3,22.9-11.7c14.7-8.8,27.6-19.2,36.8-27.4c4.6-4.1,8.2-7.6,10.7-10.1c1.2-1.3,2.2-2.3,2.9-2.9
			c0.3-0.3,0.6-0.6,0.7-0.8c0.2-0.2,0.2-0.3,0.2-0.3s-0.5,0.2-1.4,0.6C1186.9,574.8,1185.5,575.4,1183.8,576.1z"/>
	</g>
	<path class="st2" d="M1134,306V86c0-8.3-7.1-15.2-15.3-15.9c-19.9-10-57.3-16.7-100.2-16.7c-42.8,0-80.1,6.7-100,16.7
		c-1.8,0.1-6.7,0.6-10.8,4.7c-2.9,2.9-4.7,6.9-4.7,11.3v0.4c0,0.1,0,0.2,0,0.2s0,0.2,0,0.2v219.3c-0.4,0-0.7,0.1-1.1,0.1
		c0,0,0,0,0-0.1c-47.9,6-79,15.6-79,26.4c0,18.3,87.9,33.1,196.3,33.1s196.3-14.7,196.3-33C1215.5,321.7,1183.4,312,1134,306z"/>
	<g>
		<path class="st2" d="M18.6,505.3v-50.7l32.1,50.7H18.6z M18.7,439.2v-33.3h44.5l29.7,47.2l-32.8,51.3L18.7,439.2z M96.7,447.3
			l26.3-41.4h30v99.3H96.7V447.3z"/>
		<path class="st2" d="M167.2,505.3v-72.9h39.4v10.7c3.7-3.7,7.3-6.3,10.6-8c3.2-1.6,6.6-2.5,10.1-2.5c3.1,0,6,0.7,8.6,2
			c2.6,1.3,4.7,3.2,6.1,5.7c1.4,2.4,2.1,5.1,2.1,7.9c0,2.7-0.7,5.2-2,7.6c-1.3,2.3-3.1,4.1-5.5,5.5c-2.4,1.3-4.9,2-7.7,2
			c-4.4,0-8-1.5-11-4.5c-3-3-4.5-6.7-4.5-11.2c0-1.7,0.3-3.7,0.9-5.9c-2.3,1.5-4.9,3.8-7.9,6.9v56.6H167.2z"/>
		<path class="st2" d="M237.6,474.5h0.4c4.5,0.1,8.2,1.7,11.1,4.6c3,3,4.5,6.6,4.5,10.7c0,4.4-1.5,8.1-4.5,11
			c-3,2.9-6.7,4.4-11.1,4.4c-2.8,0-5.4-0.7-7.7-2.1c-2.4-1.4-4.3-3.3-5.7-5.7c-1.4-2.3-2.1-4.9-2.1-7.6c0-2.8,0.7-5.4,2-7.7
			c1.3-2.4,3.2-4.2,5.6-5.5C232.4,475.1,234.9,474.5,237.6,474.5z"/>
		<path class="st2" d="M329.3,505.3v-99.3h103.1v37.9l-8.1-5.9v36.7l-37.8-18.2v48.9H329.3z M422.7,436.6L386.4,409v46L422.7,436.6z
			"/>
		<path class="st2" d="M444.4,505.3v-72.9h39.4v10.7c3.7-3.7,7.3-6.3,10.6-8c3.2-1.6,6.6-2.5,10.1-2.5c3.1,0,6,0.7,8.6,2
			c2.6,1.3,4.7,3.2,6.1,5.7c1.4,2.4,2.1,5.1,2.1,7.9c0,2.7-0.7,5.2-2,7.6c-1.3,2.3-3.1,4.1-5.5,5.5c-2.4,1.3-4.9,2-7.7,2
			c-4.4,0-8-1.5-11-4.5c-3-3-4.5-6.7-4.5-11.2c0-1.7,0.3-3.7,0.9-5.9c-2.3,1.5-4.9,3.8-7.9,6.9v56.6H444.4z"/>
		<path class="st2" d="M608,477.9l3.8,1.8c-1.2,3.3-2.3,5.9-3.3,7.7c-1.1,1.9-2.4,3.8-4.2,5.7c-3.5,4-7.5,6.9-11.9,8.7
			c-6.2,2.6-13.6,4-22.3,4c-5,0-9.5-0.4-13.6-1.3c-4.1-0.8-7.7-2.1-10.8-3.7c-3.2-1.6-6.1-3.8-8.7-6.5c-3.4-3.5-5.9-7.4-7.7-11.8
			c-1.8-4.4-2.6-9.1-2.6-14.1c0-5.1,1-10,2.9-14.5c1.9-4.5,4.7-8.5,8.2-12c3.5-3.4,7.5-6,12.1-7.9c4.7-1.8,9.6-2.8,14.7-2.8h1.5
			v70.1c3.3,0.3,5.6,0.4,7,0.4c10.6,0,19-3,25.4-9.1c2.1-2,3.8-4,5-5.9C604.9,484.7,606.4,481.8,608,477.9z M613.7,468h-39.1v-36.9
			c3.6,0.3,6.6,0.6,9.2,1.1c2.3,0.4,4.6,1.2,6.7,2.2c4.6,1.8,8.8,4.6,12.5,8.4c2.5,2.5,4.7,5.5,6.5,8.8c1.9,3.5,3,6.7,3.5,9.6
			C613.3,463,613.5,465.3,613.7,468z"/>
		<path class="st2" d="M702,477.9l3.8,1.8c-1.2,3.3-2.3,5.9-3.3,7.7c-1,1.9-2.4,3.8-4.2,5.7c-3.5,4-7.5,6.9-11.9,8.7
			c-6.2,2.6-13.6,4-22.3,4c-5,0-9.5-0.4-13.6-1.3c-4.1-0.8-7.7-2.1-10.8-3.7c-3.2-1.6-6.1-3.8-8.7-6.5c-3.4-3.5-5.9-7.4-7.7-11.8
			c-1.8-4.4-2.6-9.1-2.6-14.1c0-5.1,1-10,2.9-14.5c1.9-4.5,4.7-8.5,8.2-12c3.5-3.4,7.5-6,12.1-7.9c4.7-1.8,9.6-2.8,14.7-2.8h1.5
			v70.1c3.3,0.3,5.6,0.4,7,0.4c10.6,0,19-3,25.4-9.1c2.1-2,3.8-4,5-5.9C698.9,484.7,700.4,481.8,702,477.9z M707.7,468h-39.1v-36.9
			c3.6,0.3,6.6,0.6,9.2,1.1c2.3,0.4,4.6,1.2,6.7,2.2c4.6,1.8,8.8,4.6,12.5,8.4c2.5,2.5,4.7,5.5,6.5,8.8c1.9,3.5,3,6.7,3.5,9.6
			C707.4,463,707.6,465.3,707.7,468z"/>
		<path class="st2" d="M718.9,505.3v-98.7h39.4v98.7H718.9z M766.7,505.1v-72.9c1.9-0.1,3.9-0.1,5.8-0.1c5,0,9.6,1,13.9,2.9
			c4.4,2,8.2,4.7,11.6,8.3c3.4,3.6,6,7.7,7.9,12.2c1.8,4.7,2.8,9.5,2.8,14.6c0,4.6-0.9,9.1-2.8,13.5c-1.8,4.3-4.4,8.1-7.7,11.5
			c-3.3,3.2-7.1,5.8-11.3,7.6c-4.2,1.8-8.8,2.7-13.6,2.7C771.9,505.4,769.7,505.3,766.7,505.1z"/>
		<path class="st2" d="M1206.5,505.3v-98.7h39.5v68.3l26.8-23.1l35.5,53.5h-45.8l-16.4-28.1h-0.3v28.1H1206.5z M1272.8,451.6
			l-12.4-19.2h35.1L1272.8,451.6z"/>
		<path class="st2" d="M1346.3,487.6l-13.8-5c-6.3-2.2-11.1-5.5-14.5-10c-3.5-4.5-5.2-9.5-5.2-15.1c0-4.8,1.3-9.3,3.8-13.4
			c2.5-4.1,5.9-7.3,10.3-9.6c4.3-2.3,9.1-3.5,14.4-3.5c0.9,0,1.7,0,2.5,0.1c-1.4,1.8-2.2,3.1-2.5,3.8c-0.4,0.9-0.6,1.9-0.6,3.1
			c0,4.9,4.2,9,12.5,12.4l8.9,3.5c4.8,2,8.8,4.3,11.9,6.9c3.1,2.6,5.5,5.6,7.2,8.9c1.6,3.3,2.5,7,2.5,10.9c0,4.6-1.1,8.8-3.2,12.5
			c-2.2,3.8-5.1,6.8-8.9,9c-3.8,2.2-8,3.3-12.4,3.3c-1.8,0-4.1-0.1-6.9-0.4c2.4-2.6,3.5-5.1,3.5-7.5
			C1355.8,493.2,1352.6,489.9,1346.3,487.6z M1326,483.9c2,0,3.8,0.5,5.6,1.5c1.7,1,3.1,2.4,4.1,4.1c1,1.8,1.5,3.6,1.5,5.6
			c0,2.1-0.5,3.9-1.4,5.7c-1,1.8-2.4,3.1-4.2,4.2s-3.6,1.5-5.6,1.5c-2.1,0-4-0.5-5.7-1.5c-1.8-1-3.2-2.4-4.2-4.2
			c-1-1.7-1.5-3.6-1.5-5.7c0-2,0.5-3.8,1.5-5.6c1-1.7,2.4-3.1,4.2-4.1S1323.9,483.9,1326,483.9z M1368.4,430.1c2.1,0,4,0.5,5.7,1.5
			s3.2,2.4,4.2,4.2s1.5,3.7,1.5,5.7c0,2-0.5,3.8-1.4,5.5c-1,1.7-2.4,3.1-4.2,4.1c-1.8,1-3.7,1.6-5.8,1.6c-3.1,0-5.7-1.1-7.9-3.3
			c-2.2-2.2-3.3-4.9-3.3-7.9c0-3.1,1.1-5.8,3.3-8S1365.4,430.1,1368.4,430.1z"/>
	</g>
	<g>
		<ellipse class="st2" cx="1090" cy="460.8" rx="37.4" ry="26.2"/>
	</g>
	<g>
		<path class="st2" d="M929.3,524.3c-33.8,0-61.3-27.5-61.3-61.3s27.5-61.3,61.3-61.3s61.3,27.5,61.3,61.3S963.1,524.3,929.3,524.3z
			 M929.3,411.6c-28.3,0-51.3,23-51.3,51.3s23,51.3,51.3,51.3s51.3-23,51.3-51.3S957.6,411.6,929.3,411.6z"/>
	</g>
</g>
</svg>
