<?xml version="1.0" encoding="utf-8"?>
<!-- Generator: Adobe Illustrator 19.2.0, SVG Export Plug-In . SVG Version: 6.00 Build 0)  -->
<svg version="1.1" id="Layer_1" xmlns="http://www.w3.org/2000/svg" xmlns:xlink="http://www.w3.org/1999/xlink" x="0px" y="0px"
	 viewBox="0 0 600 361" style="enable-background:new 0 0 600 361;" xml:space="preserve">
<style type="text/css">
	.st0{fill:none;}
	.st1{font-family:'JosefinSlab';}
	.st2{font-size:60px;}
</style>
<rect x="64.8" y="155.3" class="st0" width="453.2" height="139.6"/>
<text transform="matrix(1 0 0 1 64.8184 200.3377)" class="st1 st2">Mr.Freeb O    ks</text>
<circle cx="398" cy="180.3" r="8.1"/>
<path d="M408,140h-59c-6.6,0-12-5.4-12-12V60.9c0-6.6,5.4-12,12-12h59c6.6,0,12,5.4,12,12V128C420,134.6,414.6,140,408,140z"/>
<path d="M458.5,140H296.9c-3,0-5.5-2.5-5.5-5.5l0,0c0-3,2.5-5.5,5.5-5.5h161.6c3,0,5.5,2.5,5.5,5.5l0,0
	C464,137.5,461.5,140,458.5,140z"/>
<g>
	<g>
		<path d="M299,237.1c8.7,9.8,24,12.7,35.6,6.4c7.1-3.9,11.6-11.9,19.5-14.3c5-1.5,10.9-1.2,16.1-0.8c6,0.5,12.5,2.5,14.1,9.1
			c0.4,1.9,3.3,1.1,2.9-0.8c-1.7-7.2-8.4-10.3-15.2-11.1c-8.7-1-18.3-1.1-25.5,4.4c-6.8,5.1-11.5,11.8-20.4,13.5
			c-9.2,1.8-18.7-1.4-24.9-8.4C299.8,233.5,297.7,235.6,299,237.1L299,237.1z"/>
	</g>
</g>
<g>
	<g>
		<path d="M386.4,240.3c5.9-6.9,14.7-10.5,23.7-9.8c4.7,0.4,9,1.9,12.9,4.6c4.1,2.8,7.6,6.3,12.3,8.2c12.2,5,27.1-0.9,33-12.5
			c0.9-1.7-1.7-3.2-2.6-1.5c-3.8,7.6-11.4,12.3-19.9,12.8c-10.2,0.6-15.7-6.7-24-11.2c-12.4-6.7-28.6-3.3-37.6,7.3
			C383,239.7,385.1,241.8,386.4,240.3L386.4,240.3z"/>
	</g>
</g>
<g>
	<g>
		<path d="M465.1,232.5c4.7,17.3-12.3,29.2-27.6,30.7c-15.3,1.4-30.3-4.8-43.5-12c-1.7-0.9-3.2,1.7-1.5,2.6
			c15.6,8.4,34.1,15.7,52.1,11.2c14.8-3.8,27.9-17.1,23.5-33.3C467.5,229.9,464.6,230.7,465.1,232.5L465.1,232.5z"/>
	</g>
</g>
<g>
	<g>
		<path d="M392.8,249.7c-2-1-4-2-6-3c-1.7-0.9-3.2,1.7-1.5,2.6c2,1,4,2,6,3C393,253.2,394.5,250.6,392.8,249.7L392.8,249.7z"/>
	</g>
</g>
<g>
	<g>
		<path d="M378.3,248.6c-8.2,3.1-15.6,7.8-24.1,10c-8.7,2.3-17.9,2.5-26.8,2.3c-7.3-0.2-19.6,1.2-23.8-6.3
			c-3.4-6.1-1.6-13.9-4.4-20.3c-0.8-1.8-3.4-0.2-2.6,1.5c3.1,6.9,0.7,15.5,5.4,21.8c4.6,6.1,13.1,5.9,20,6.2
			c9.6,0.4,19.3,0.6,28.7-1.2c10.3-1.9,18.8-7.4,28.5-11C380.9,250.8,380.1,247.9,378.3,248.6L378.3,248.6z"/>
	</g>
</g>
<g>
	<g>
		<path d="M378,252.5c3.4-0.2,6.4-1.9,8.2-4.8c1.1-1.6-1.5-3.1-2.6-1.5c-1.3,1.9-3.3,3.2-5.7,3.3C376.1,249.7,376.1,252.7,378,252.5
			L378,252.5z"/>
	</g>
</g>
</svg>
