<svg id="Layer_1" data-name="Layer 1" xmlns="http://www.w3.org/2000/svg" viewBox="0 0 83.08 13.94"><title>menu-icon</title><path d="M10.64,4l4.27,11.4L19.21,4h2.47V17.6H20V6.31h0L15.7,17.6H14.16L9.92,6.31h0V17.6H8.17V4h2.47Z" transform="translate(-8.17 -4.03)"/><path d="M34.05,4V5.55H26.49V9.86h7v1.52h-7v4.69h7.62V17.6H24.68V4h9.37Z" transform="translate(-8.17 -4.03)"/><path d="M38.19,4l7.14,11h0V4h1.71V17.6h-2L38,6.71h0V17.6H36.27V4h1.92Z" transform="translate(-8.17 -4.03)"/><path d="M59.45,16.6a5.56,5.56,0,0,1-4,1.3,6.15,6.15,0,0,1-4.09-1.24,4.91,4.91,0,0,1-1.47-4V4h1.81V12.7a3.68,3.68,0,0,0,1,2.76,3.85,3.85,0,0,0,2.79.94,3.48,3.48,0,0,0,2.63-.94A3.84,3.84,0,0,0,59,12.7V4h1.81V12.7A5.1,5.1,0,0,1,59.45,16.6Z" transform="translate(-8.17 -4.03)"/><rect x="58.58" width="24.5" height="2.97" rx="1.48" ry="1.48"/><rect x="58.58" y="5.48" width="24.5" height="2.97" rx="1.48" ry="1.48"/><rect x="58.58" y="10.97" width="24.5" height="2.97" rx="1.48" ry="1.48"/></svg>